<?xml version="1.0" encoding="UTF-8" standalone="no"?>
<!DOCTYPE svg PUBLIC "-//W3C//DTD SVG 1.1//EN"
 "http://www.w3.org/Graphics/SVG/1.1/DTD/svg11.dtd">
<!-- Generated by graphviz version 2.44.1 (20200629.0846)
 -->
<!-- Pages: 1 -->
<svg width="404pt" height="213pt"
 viewBox="0.00 0.00 404.00 213.42" xmlns="http://www.w3.org/2000/svg" xmlns:xlink="http://www.w3.org/1999/xlink">
<g id="graph0" class="graph" transform="scale(1 1) rotate(0) translate(4 209.42)">
<polygon fill="white" stroke="transparent" points="-4,4 -4,-209.42 400,-209.42 400,4 -4,4"/>
<!-- 1 -->
<g id="node1" class="node">
<title>1</title>
<ellipse fill="none" stroke="black" cx="162" cy="-100.4" rx="18" ry="18"/>
<text text-anchor="middle" x="162" y="-96.7" font-family="Times,serif" font-size="14.00">1</text>
</g>
<!-- 5 -->
<g id="node5" class="node">
<title>5</title>
<ellipse fill="none" stroke="black" cx="378" cy="-78.8" rx="18" ry="18"/>
<text text-anchor="middle" x="378" y="-75.1" font-family="Times,serif" font-size="14.00">5</text>
</g>
<!-- 1&#45;&gt;5 -->
<g id="edge4" class="edge">
<title>1&#45;&gt;5</title>
<path fill="none" stroke="black" d="M180.04,-98.6C217.69,-94.83 304.81,-86.12 349.88,-81.61"/>
<polygon fill="black" stroke="black" points="350.25,-85.09 359.85,-80.61 349.56,-78.13 350.25,-85.09"/>
</g>
<!-- 6 -->
<g id="node6" class="node">
<title>6</title>
<ellipse fill="none" stroke="black" cx="320.4" cy="-172.4" rx="18" ry="18"/>
<text text-anchor="middle" x="320.4" y="-168.7" font-family="Times,serif" font-size="14.00">6</text>
</g>
<!-- 1&#45;&gt;6 -->
<g id="edge6" class="edge">
<title>1&#45;&gt;6</title>
<path fill="none" stroke="black" d="M178.65,-107.97C206.29,-120.53 261.84,-145.78 294.6,-160.67"/>
<polygon fill="black" stroke="black" points="293.42,-163.98 303.97,-164.93 296.32,-157.61 293.42,-163.98"/>
</g>
<!-- 2 -->
<g id="node2" class="node">
<title>2</title>
<ellipse fill="none" stroke="black" cx="234" cy="-28.4" rx="18" ry="18"/>
<text text-anchor="middle" x="234" y="-24.7" font-family="Times,serif" font-size="14.00">2</text>
</g>
<!-- 3 -->
<g id="node3" class="node">
<title>3</title>
<ellipse fill="yellow" stroke="black" cx="18" cy="-100.4" rx="18" ry="18"/>
<text text-anchor="middle" x="18" y="-96.7" font-family="Times,serif" font-size="14.00">3</text>
</g>
<!-- 3&#45;&gt;1 -->
<g id="edge2" class="edge">
<title>3:se&#45;&gt;1:sw</title>
<path fill="none" stroke="black" d="M30.91,-87.35C30.91,-87.35 31.45,-86.87 31.97,-86.66 44.27,-81.64 48.02,-81.67 61.27,-80.8 96.41,-78.49 109.9,-72.96 139.74,-83.68"/>
<polygon fill="black" stroke="black" points="138.5,-86.95 149.09,-87.35 141.06,-80.44 138.5,-86.95"/>
</g>
<!-- 3&#45;&gt;2 -->
<g id="edge3" class="edge">
<title>3:se&#45;&gt;2:sw</title>
<path fill="none" stroke="black" d="M30.91,-87.35C30.91,-87.35 31.47,-86.91 31.97,-86.66 108.66,-47.52 130.8,0 211.01,-13.41"/>
<polygon fill="black" stroke="black" points="210.6,-16.89 221.09,-15.35 211.93,-10.02 210.6,-16.89"/>
</g>
<!-- 4 -->
<g id="node4" class="node">
<title>4</title>
<ellipse fill="yellow" stroke="black" cx="61.2" cy="-100.4" rx="18" ry="18"/>
<text text-anchor="middle" x="61.2" y="-96.7" font-family="Times,serif" font-size="14.00">4</text>
</g>
<!-- 4&#45;&gt;1 -->
<g id="edge1" class="edge">
<title>4:ne&#45;&gt;1:nw</title>
<path fill="none" stroke="black" d="M74.11,-113.45C74.11,-113.45 74.5,-114.1 75.01,-114.31 87.63,-119.34 119.59,-119.82 139.2,-116.12"/>
<polygon fill="black" stroke="black" points="140.34,-119.43 149.09,-113.45 138.52,-112.67 140.34,-119.43"/>
</g>
<!-- 4&#45;&gt;6 -->
<g id="edge5" class="edge">
<title>4:ne&#45;&gt;6:nw</title>
<path fill="none" stroke="black" d="M74.11,-113.45C74.11,-113.45 74.54,-114.03 75.01,-114.31 164.95,-167.09 198.8,-205.42 297.41,-187.44"/>
<polygon fill="black" stroke="black" points="298.35,-190.82 307.49,-185.45 297,-183.95 298.35,-190.82"/>
</g>
<!-- 7 -->
<g id="node7" class="node">
<title>7</title>
<ellipse fill="none" stroke="black" cx="378" cy="-28.4" rx="18" ry="18"/>
<text text-anchor="middle" x="378" y="-24.7" font-family="Times,serif" font-size="14.00">7</text>
</g>
<!-- 6&#45;&gt;7 -->
<g id="edge7" class="edge">
<title>6&#45;&gt;7</title>
<path fill="none" stroke="black" d="M327.12,-155.6C337,-130.91 355.53,-84.58 367.29,-55.17"/>
<polygon fill="black" stroke="black" points="370.68,-56.12 371.14,-45.54 364.18,-53.52 370.68,-56.12"/>
</g>
<!-- 8 -->
<g id="node8" class="node">
<title>8</title>
<ellipse fill="none" stroke="black" cx="320.4" cy="-28.4" rx="18" ry="18"/>
<text text-anchor="middle" x="320.4" y="-24.7" font-family="Times,serif" font-size="14.00">8</text>
</g>
<!-- 7&#45;&gt;8 -->
<g id="edge8" class="edge">
<title>7&#45;&gt;8</title>
<path fill="none" stroke="black" d="M359.78,-28.4C356.31,-28.4 352.6,-28.4 348.91,-28.4"/>
<polygon fill="black" stroke="black" points="348.7,-24.9 338.7,-28.4 348.7,-31.9 348.7,-24.9"/>
</g>
</g>
</svg>
