<?xml version="1.0" encoding="UTF-8" standalone="no"?>
<!DOCTYPE svg PUBLIC "-//W3C//DTD SVG 1.1//EN"
 "http://www.w3.org/Graphics/SVG/1.1/DTD/svg11.dtd">
<!-- Generated by graphviz version 2.44.1 (20200629.0846)
 -->
<!-- Pages: 1 -->
<svg width="260pt" height="202pt"
 viewBox="0.00 0.00 260.00 202.40" xmlns="http://www.w3.org/2000/svg" xmlns:xlink="http://www.w3.org/1999/xlink">
<g id="graph0" class="graph" transform="scale(1 1) rotate(0) translate(4 198.4)">
<polygon fill="white" stroke="transparent" points="-4,4 -4,-198.4 256,-198.4 256,4 -4,4"/>
<!-- 1 -->
<g id="node1" class="node">
<title>1</title>
<ellipse fill="none" stroke="black" cx="18" cy="-90" rx="18" ry="18"/>
<text text-anchor="middle" x="18" y="-86.3" font-family="Times,serif" font-size="14.00">1</text>
</g>
<!-- 5 -->
<g id="node5" class="node">
<title>5</title>
<ellipse fill="none" stroke="black" cx="234" cy="-68.4" rx="18" ry="18"/>
<text text-anchor="middle" x="234" y="-64.7" font-family="Times,serif" font-size="14.00">5</text>
</g>
<!-- 1&#45;&gt;5 -->
<g id="edge4" class="edge">
<title>1&#45;&gt;5</title>
<path fill="none" stroke="black" d="M36.04,-88.2C73.69,-84.43 160.81,-75.72 205.88,-71.21"/>
<polygon fill="black" stroke="black" points="206.25,-74.69 215.85,-70.21 205.56,-67.73 206.25,-74.69"/>
</g>
<!-- 6 -->
<g id="node6" class="node">
<title>6</title>
<ellipse fill="none" stroke="black" cx="176.4" cy="-162" rx="18" ry="18"/>
<text text-anchor="middle" x="176.4" y="-158.3" font-family="Times,serif" font-size="14.00">6</text>
</g>
<!-- 1&#45;&gt;6 -->
<g id="edge6" class="edge">
<title>1&#45;&gt;6</title>
<path fill="none" stroke="black" d="M34.65,-97.57C62.29,-110.13 117.84,-135.38 150.6,-150.27"/>
<polygon fill="black" stroke="black" points="149.42,-153.58 159.97,-154.53 152.32,-147.21 149.42,-153.58"/>
</g>
<!-- 2 -->
<g id="node2" class="node">
<title>2</title>
<ellipse fill="none" stroke="black" cx="90" cy="-18" rx="18" ry="18"/>
<text text-anchor="middle" x="90" y="-14.3" font-family="Times,serif" font-size="14.00">2</text>
</g>
<!-- 3 -->
<g id="node3" class="node">
<title>3</title>
<ellipse fill="none" stroke="black" cx="234" cy="-126" rx="18" ry="18"/>
<text text-anchor="middle" x="234" y="-122.3" font-family="Times,serif" font-size="14.00">3</text>
</g>
<!-- 3&#45;&gt;1 -->
<g id="edge2" class="edge">
<title>3&#45;&gt;1</title>
<path fill="none" stroke="black" d="M215.96,-122.99C178.22,-116.7 90.75,-102.13 45.79,-94.63"/>
<polygon fill="black" stroke="black" points="46.28,-91.17 35.84,-92.97 45.13,-98.07 46.28,-91.17"/>
</g>
<!-- 3&#45;&gt;2 -->
<g id="edge3" class="edge">
<title>3&#45;&gt;2</title>
<path fill="none" stroke="black" d="M219.4,-115.05C194.28,-96.21 142.71,-57.53 112.81,-35.11"/>
<polygon fill="black" stroke="black" points="114.74,-32.18 104.64,-28.98 110.54,-37.78 114.74,-32.18"/>
</g>
<!-- 4 -->
<g id="node4" class="node">
<title>4</title>
<ellipse fill="none" stroke="black" cx="118.8" cy="-176.4" rx="18" ry="18"/>
<text text-anchor="middle" x="118.8" y="-172.7" font-family="Times,serif" font-size="14.00">4</text>
</g>
<!-- 4&#45;&gt;1 -->
<g id="edge1" class="edge">
<title>4&#45;&gt;1</title>
<path fill="none" stroke="black" d="M104.78,-164.39C87.93,-149.94 59.46,-125.54 39.75,-108.64"/>
<polygon fill="black" stroke="black" points="41.77,-105.76 31.9,-101.91 37.21,-111.08 41.77,-105.76"/>
</g>
<!-- 4&#45;&gt;6 -->
<g id="edge5" class="edge">
<title>4&#45;&gt;6</title>
<path fill="none" stroke="black" d="M136.39,-172C140.41,-171 144.78,-169.91 149.1,-168.83"/>
<polygon fill="black" stroke="black" points="150.06,-172.19 158.91,-166.37 148.36,-165.4 150.06,-172.19"/>
</g>
<!-- 7 -->
<g id="node7" class="node">
<title>7</title>
<ellipse fill="none" stroke="black" cx="234" cy="-18" rx="18" ry="18"/>
<text text-anchor="middle" x="234" y="-14.3" font-family="Times,serif" font-size="14.00">7</text>
</g>
<!-- 6&#45;&gt;7 -->
<g id="edge7" class="edge">
<title>6&#45;&gt;7</title>
<path fill="none" stroke="black" d="M183.12,-145.2C193,-120.51 211.53,-74.18 223.29,-44.77"/>
<polygon fill="black" stroke="black" points="226.68,-45.72 227.14,-35.14 220.18,-43.12 226.68,-45.72"/>
</g>
<!-- 8 -->
<g id="node8" class="node">
<title>8</title>
<ellipse fill="none" stroke="black" cx="176.4" cy="-18" rx="18" ry="18"/>
<text text-anchor="middle" x="176.4" y="-14.3" font-family="Times,serif" font-size="14.00">8</text>
</g>
<!-- 7&#45;&gt;8 -->
<g id="edge8" class="edge">
<title>7&#45;&gt;8</title>
<path fill="none" stroke="black" d="M215.78,-18C212.31,-18 208.6,-18 204.91,-18"/>
<polygon fill="black" stroke="black" points="204.7,-14.5 194.7,-18 204.7,-21.5 204.7,-14.5"/>
</g>
</g>
</svg>
