<?xml version="1.0" encoding="UTF-8" standalone="no"?>
<!DOCTYPE svg PUBLIC "-//W3C//DTD SVG 1.1//EN"
 "http://www.w3.org/Graphics/SVG/1.1/DTD/svg11.dtd">
<!-- Generated by graphviz version 2.44.1 (20200629.0846)
 -->
<!-- Pages: 1 -->
<svg width="332pt" height="202pt"
 viewBox="0.00 0.00 332.00 202.40" xmlns="http://www.w3.org/2000/svg" xmlns:xlink="http://www.w3.org/1999/xlink">
<g id="graph0" class="graph" transform="scale(1 1) rotate(0) translate(4 198.4)">
<polygon fill="white" stroke="transparent" points="-4,4 -4,-198.4 328,-198.4 328,4 -4,4"/>
<!-- 0 -->
<g id="node1" class="node">
<title>0</title>
<ellipse fill="red" stroke="black" cx="18" cy="-90" rx="18" ry="18"/>
<text text-anchor="middle" x="18" y="-86.3" font-family="Times,serif" font-size="14.00">0</text>
</g>
<!-- 1 -->
<g id="node2" class="node">
<title>1</title>
<ellipse fill="red" stroke="black" cx="90" cy="-90" rx="18" ry="18"/>
<text text-anchor="middle" x="90" y="-86.3" font-family="Times,serif" font-size="14.00">1</text>
</g>
<!-- 0&#45;&#45;1 -->
<g id="edge1" class="edge">
<title>0&#45;&#45;1</title>
<path fill="none" stroke="red" stroke-width="3" d="M36.17,-90C47,-90 60.71,-90 71.59,-90"/>
<text text-anchor="middle" x="50.38" y="-93.8" font-family="Times,serif" font-size="14.00">1</text>
</g>
<!-- 2 -->
<g id="node3" class="node">
<title>2</title>
<ellipse fill="none" stroke="black" cx="90" cy="-18" rx="18" ry="18"/>
<text text-anchor="middle" x="90" y="-14.3" font-family="Times,serif" font-size="14.00">2</text>
</g>
<!-- 0&#45;&#45;2 -->
<g id="edge2" class="edge">
<title>0&#45;&#45;2</title>
<path fill="none" stroke="black" d="M30.87,-77.13C43.98,-64.02 64.17,-43.83 77.24,-30.76"/>
<text text-anchor="middle" x="50.56" y="-57.74" font-family="Times,serif" font-size="14.00">3</text>
</g>
<!-- 1&#45;&#45;2 -->
<g id="edge3" class="edge">
<title>1&#45;&#45;2</title>
<path fill="none" stroke="black" d="M90,-71.83C90,-61 90,-47.29 90,-36.41"/>
<text text-anchor="middle" x="86.5" y="-57.92" font-family="Times,serif" font-size="14.00">1</text>
</g>
<!-- 3 -->
<g id="node4" class="node">
<title>3</title>
<ellipse fill="none" stroke="black" cx="118.8" cy="-176.4" rx="18" ry="18"/>
<text text-anchor="middle" x="118.8" y="-172.7" font-family="Times,serif" font-size="14.00">3</text>
</g>
<!-- 1&#45;&#45;3 -->
<g id="edge4" class="edge">
<title>1&#45;&#45;3</title>
<path fill="none" stroke="black" d="M95.83,-107.48C100.86,-122.57 108.08,-144.24 113.08,-159.24"/>
<text text-anchor="middle" x="100.95" y="-137.16" font-family="Times,serif" font-size="14.00">7</text>
</g>
<!-- 4 -->
<g id="node5" class="node">
<title>4</title>
<ellipse fill="none" stroke="black" cx="306" cy="-18" rx="18" ry="18"/>
<text text-anchor="middle" x="306" y="-14.3" font-family="Times,serif" font-size="14.00">4</text>
</g>
<!-- 1&#45;&#45;4 -->
<g id="edge6" class="edge">
<title>1&#45;&#45;4</title>
<path fill="none" stroke="black" d="M107.31,-84.23C147.86,-70.71 248.58,-37.14 288.91,-23.7"/>
<text text-anchor="middle" x="194.61" y="-57.76" font-family="Times,serif" font-size="14.00">3</text>
</g>
<!-- 2&#45;&#45;4 -->
<g id="edge5" class="edge">
<title>2&#45;&#45;4</title>
<path fill="none" stroke="black" d="M108.04,-18C148.7,-18 247.1,-18 287.85,-18"/>
<text text-anchor="middle" x="194.45" y="-21.8" font-family="Times,serif" font-size="14.00">6</text>
</g>
<!-- 3&#45;&#45;4 -->
<g id="edge7" class="edge">
<title>3&#45;&#45;4</title>
<path fill="none" stroke="black" d="M132.57,-164.75C167.18,-135.46 257.57,-58.98 292.21,-29.66"/>
<text text-anchor="middle" x="208.89" y="-101.01" font-family="Times,serif" font-size="14.00">1</text>
</g>
<!-- 5 -->
<g id="node6" class="node">
<title>5</title>
<ellipse fill="none" stroke="black" cx="306" cy="-162" rx="18" ry="18"/>
<text text-anchor="middle" x="306" y="-158.3" font-family="Times,serif" font-size="14.00">5</text>
</g>
<!-- 3&#45;&#45;5 -->
<g id="edge8" class="edge">
<title>3&#45;&#45;5</title>
<path fill="none" stroke="black" d="M136.75,-175.02C172.44,-172.27 251.96,-166.16 287.83,-163.4"/>
<text text-anchor="middle" x="208.79" y="-173.01" font-family="Times,serif" font-size="14.00">1</text>
</g>
<!-- 4&#45;&#45;5 -->
<g id="edge9" class="edge">
<title>4&#45;&#45;5</title>
<path fill="none" stroke="black" d="M306,-36.24C306,-63.94 306,-116.3 306,-143.91"/>
<text text-anchor="middle" x="302.5" y="-93.87" font-family="Times,serif" font-size="14.00">6</text>
</g>
</g>
</svg>
