<?xml version="1.0" encoding="UTF-8" standalone="no"?>
<!DOCTYPE svg PUBLIC "-//W3C//DTD SVG 1.1//EN"
 "http://www.w3.org/Graphics/SVG/1.1/DTD/svg11.dtd">
<!-- Generated by graphviz version 2.44.1 (20200629.0846)
 -->
<!-- Pages: 1 -->
<svg width="505pt" height="217pt"
 viewBox="0.00 0.00 504.80 216.80" xmlns="http://www.w3.org/2000/svg" xmlns:xlink="http://www.w3.org/1999/xlink">
<g id="graph0" class="graph" transform="scale(1 1) rotate(0) translate(4 212.8)">
<polygon fill="white" stroke="transparent" points="-4,4 -4,-212.8 500.8,-212.8 500.8,4 -4,4"/>
<!-- 1M3L -->
<g id="node1" class="node">
<title>1M3L</title>
<ellipse fill="#87cefa" stroke="black" cx="18" cy="-190.8" rx="18" ry="18"/>
<text text-anchor="middle" x="18" y="-187.1" font-family="Times,serif" font-size="14.00">3</text>
</g>
<!-- 1M5L -->
<g id="node2" class="node">
<title>1M5L</title>
<ellipse fill="#87cefa" stroke="black" cx="61.2" cy="-190.8" rx="18" ry="18"/>
<text text-anchor="middle" x="61.2" y="-187.1" font-family="Times,serif" font-size="14.00">5</text>
</g>
<!-- 1M1L -->
<g id="node3" class="node">
<title>1M1L</title>
<ellipse fill="#87cefa" stroke="black" cx="104.4" cy="-190.8" rx="18" ry="18"/>
<text text-anchor="middle" x="104.4" y="-187.1" font-family="Times,serif" font-size="14.00">1</text>
</g>
<!-- 1M4L -->
<g id="node4" class="node">
<title>1M4L</title>
<ellipse fill="#87cefa" stroke="black" cx="147.6" cy="-190.8" rx="18" ry="18"/>
<text text-anchor="middle" x="147.6" y="-187.1" font-family="Times,serif" font-size="14.00">4</text>
</g>
<!-- 1M2L -->
<g id="node5" class="node">
<title>1M2L</title>
<ellipse fill="#87cefa" stroke="black" cx="190.8" cy="-190.8" rx="18" ry="18"/>
<text text-anchor="middle" x="190.8" y="-187.1" font-family="Times,serif" font-size="14.00">2</text>
</g>
<!-- 2M1L -->
<g id="node6" class="node">
<title>2M1L</title>
<ellipse fill="#87cefa" stroke="black" cx="18" cy="-147.6" rx="18" ry="18"/>
<text text-anchor="middle" x="18" y="-143.9" font-family="Times,serif" font-size="14.00">1</text>
</g>
<!-- 2M2L -->
<g id="node7" class="node">
<title>2M2L</title>
<ellipse fill="#87cefa" stroke="black" cx="61.2" cy="-147.6" rx="18" ry="18"/>
<text text-anchor="middle" x="61.2" y="-143.9" font-family="Times,serif" font-size="14.00">2</text>
</g>
<!-- 2M3L -->
<g id="node8" class="node">
<title>2M3L</title>
<ellipse fill="#87cefa" stroke="black" cx="104.4" cy="-147.6" rx="18" ry="18"/>
<text text-anchor="middle" x="104.4" y="-143.9" font-family="Times,serif" font-size="14.00">3</text>
</g>
<!-- 2M4L -->
<g id="node9" class="node">
<title>2M4L</title>
<ellipse fill="#87cefa" stroke="black" cx="147.6" cy="-147.6" rx="18" ry="18"/>
<text text-anchor="middle" x="147.6" y="-143.9" font-family="Times,serif" font-size="14.00">4</text>
</g>
<!-- 2M5L -->
<g id="node10" class="node">
<title>2M5L</title>
<ellipse fill="#87cefa" stroke="black" cx="190.8" cy="-147.6" rx="18" ry="18"/>
<text text-anchor="middle" x="190.8" y="-143.9" font-family="Times,serif" font-size="14.00">5</text>
</g>
<!-- 3M1L -->
<g id="node11" class="node">
<title>3M1L</title>
<ellipse fill="#87cefa" stroke="black" cx="18" cy="-104.4" rx="18" ry="18"/>
<text text-anchor="middle" x="18" y="-100.7" font-family="Times,serif" font-size="14.00">1</text>
</g>
<!-- 3M4L -->
<g id="node12" class="node">
<title>3M4L</title>
<ellipse fill="#87cefa" stroke="black" cx="61.2" cy="-104.4" rx="18" ry="18"/>
<text text-anchor="middle" x="61.2" y="-100.7" font-family="Times,serif" font-size="14.00">4</text>
</g>
<!-- 3M3L -->
<g id="node13" class="node">
<title>3M3L</title>
<ellipse fill="#87cefa" stroke="black" cx="104.4" cy="-104.4" rx="18" ry="18"/>
<text text-anchor="middle" x="104.4" y="-100.7" font-family="Times,serif" font-size="14.00">3</text>
</g>
<!-- 3M5L -->
<g id="node14" class="node">
<title>3M5L</title>
<ellipse fill="#87cefa" stroke="black" cx="147.6" cy="-104.4" rx="18" ry="18"/>
<text text-anchor="middle" x="147.6" y="-100.7" font-family="Times,serif" font-size="14.00">5</text>
</g>
<!-- 3M2L -->
<g id="node15" class="node">
<title>3M2L</title>
<ellipse fill="#87cefa" stroke="black" cx="190.8" cy="-104.4" rx="18" ry="18"/>
<text text-anchor="middle" x="190.8" y="-100.7" font-family="Times,serif" font-size="14.00">2</text>
</g>
<!-- 4M2L -->
<g id="node16" class="node">
<title>4M2L</title>
<ellipse fill="#87cefa" stroke="black" cx="18" cy="-61.2" rx="18" ry="18"/>
<text text-anchor="middle" x="18" y="-57.5" font-family="Times,serif" font-size="14.00">2</text>
</g>
<!-- 4M5L -->
<g id="node17" class="node">
<title>4M5L</title>
<ellipse fill="#87cefa" stroke="black" cx="61.2" cy="-61.2" rx="18" ry="18"/>
<text text-anchor="middle" x="61.2" y="-57.5" font-family="Times,serif" font-size="14.00">5</text>
</g>
<!-- 4M4L -->
<g id="node18" class="node">
<title>4M4L</title>
<ellipse fill="#87cefa" stroke="black" cx="104.4" cy="-61.2" rx="18" ry="18"/>
<text text-anchor="middle" x="104.4" y="-57.5" font-family="Times,serif" font-size="14.00">4</text>
</g>
<!-- 4M1L -->
<g id="node19" class="node">
<title>4M1L</title>
<ellipse fill="#87cefa" stroke="black" cx="147.6" cy="-61.2" rx="18" ry="18"/>
<text text-anchor="middle" x="147.6" y="-57.5" font-family="Times,serif" font-size="14.00">1</text>
</g>
<!-- 4M3L -->
<g id="node20" class="node">
<title>4M3L</title>
<ellipse fill="#87cefa" stroke="black" cx="190.8" cy="-61.2" rx="18" ry="18"/>
<text text-anchor="middle" x="190.8" y="-57.5" font-family="Times,serif" font-size="14.00">3</text>
</g>
<!-- 5M4L -->
<g id="node21" class="node">
<title>5M4L</title>
<ellipse fill="#87cefa" stroke="black" cx="18" cy="-18" rx="18" ry="18"/>
<text text-anchor="middle" x="18" y="-14.3" font-family="Times,serif" font-size="14.00">4</text>
</g>
<!-- 5M1L -->
<g id="node22" class="node">
<title>5M1L</title>
<ellipse fill="#87cefa" stroke="black" cx="61.2" cy="-18" rx="18" ry="18"/>
<text text-anchor="middle" x="61.2" y="-14.3" font-family="Times,serif" font-size="14.00">1</text>
</g>
<!-- 5M5L -->
<g id="node23" class="node">
<title>5M5L</title>
<ellipse fill="#87cefa" stroke="black" cx="104.4" cy="-18" rx="18" ry="18"/>
<text text-anchor="middle" x="104.4" y="-14.3" font-family="Times,serif" font-size="14.00">5</text>
</g>
<!-- 5M2L -->
<g id="node24" class="node">
<title>5M2L</title>
<ellipse fill="#87cefa" stroke="black" cx="147.6" cy="-18" rx="18" ry="18"/>
<text text-anchor="middle" x="147.6" y="-14.3" font-family="Times,serif" font-size="14.00">2</text>
</g>
<!-- 5M3L -->
<g id="node25" class="node">
<title>5M3L</title>
<ellipse fill="#87cefa" stroke="black" cx="190.8" cy="-18" rx="18" ry="18"/>
<text text-anchor="middle" x="190.8" y="-14.3" font-family="Times,serif" font-size="14.00">3</text>
</g>
<!-- 1M -->
<g id="node26" class="node">
<title>1M</title>
<ellipse fill="black" stroke="black" cx="225.36" cy="-190.8" rx="2" ry="2"/>
<text text-anchor="middle" x="225.36" y="-190.5" font-family="Times,serif" font-size="1.00">1M</text>
</g>
<!-- 1L -->
<g id="node56" class="node">
<title>1L</title>
<ellipse fill="black" stroke="black" cx="271.44" cy="-190.8" rx="2" ry="2"/>
<text text-anchor="middle" x="271.44" y="-190.5" font-family="Times,serif" font-size="1.00">1L</text>
</g>
<!-- 1M&#45;&#45;1L -->
<g id="edge1" class="edge">
<title>1M&#45;&#45;1L</title>
<path fill="none" stroke="transparent" d="M227.58,-190.8C235.35,-190.8 261.23,-190.8 269.13,-190.8"/>
</g>
<!-- 2L -->
<g id="node57" class="node">
<title>2L</title>
<ellipse fill="black" stroke="black" cx="271.44" cy="-147.6" rx="2" ry="2"/>
<text text-anchor="middle" x="271.44" y="-147.3" font-family="Times,serif" font-size="1.00">2L</text>
</g>
<!-- 1M&#45;&#45;2L -->
<g id="edge2" class="edge">
<title>1M&#45;&#45;2L</title>
<path fill="none" stroke="transparent" d="M226.89,-189.36C233.89,-182.8 262.75,-155.75 269.85,-149.09"/>
</g>
<!-- 3L -->
<g id="node58" class="node">
<title>3L</title>
<ellipse fill="black" stroke="black" cx="271.44" cy="-104.4" rx="2" ry="2"/>
<text text-anchor="middle" x="271.44" y="-104.1" font-family="Times,serif" font-size="1.00">3L</text>
</g>
<!-- 1M&#45;&#45;3L -->
<g id="edge3" class="edge">
<title>1M&#45;&#45;3L</title>
<path fill="none" stroke="transparent" d="M226.32,-189C232.32,-177.75 264.5,-117.41 270.48,-106.19"/>
</g>
<!-- 4L -->
<g id="node59" class="node">
<title>4L</title>
<ellipse fill="black" stroke="black" cx="271.44" cy="-61.2" rx="2" ry="2"/>
<text text-anchor="middle" x="271.44" y="-60.9" font-family="Times,serif" font-size="1.00">4L</text>
</g>
<!-- 1M&#45;&#45;4L -->
<g id="edge4" class="edge">
<title>1M&#45;&#45;4L</title>
<path fill="none" stroke="transparent" d="M226.16,-188.55C231.8,-172.69 265.52,-77.84 270.76,-63.12"/>
</g>
<!-- 5L -->
<g id="node60" class="node">
<title>5L</title>
<ellipse fill="black" stroke="black" cx="271.44" cy="-18" rx="2" ry="2"/>
<text text-anchor="middle" x="271.44" y="-17.7" font-family="Times,serif" font-size="1.00">5L</text>
</g>
<!-- 1M&#45;&#45;5L -->
<g id="edge5" class="edge">
<title>1M&#45;&#45;5L</title>
<path fill="none" stroke="transparent" d="M225.88,-188.86C230.58,-171.21 265.92,-38.7 270.87,-20.15"/>
</g>
<!-- 2M -->
<g id="node27" class="node">
<title>2M</title>
<ellipse fill="black" stroke="black" cx="225.36" cy="-147.6" rx="2" ry="2"/>
<text text-anchor="middle" x="225.36" y="-147.3" font-family="Times,serif" font-size="1.00">2M</text>
</g>
<!-- 2M&#45;&#45;1L -->
<g id="edge6" class="edge">
<title>2M&#45;&#45;1L</title>
<path fill="none" stroke="transparent" d="M226.89,-149.04C233.89,-155.6 262.75,-182.65 269.85,-189.31"/>
</g>
<!-- 2M&#45;&#45;2L -->
<g id="edge7" class="edge">
<title>2M&#45;&#45;2L</title>
<path fill="none" stroke="transparent" d="M227.58,-147.6C235.35,-147.6 261.23,-147.6 269.13,-147.6"/>
</g>
<!-- 2M&#45;&#45;3L -->
<g id="edge8" class="edge">
<title>2M&#45;&#45;3L</title>
<path fill="none" stroke="transparent" d="M226.89,-146.16C233.89,-139.6 262.75,-112.55 269.85,-105.89"/>
</g>
<!-- 2M&#45;&#45;4L -->
<g id="edge9" class="edge">
<title>2M&#45;&#45;4L</title>
<path fill="none" stroke="transparent" d="M226.32,-145.8C232.32,-134.55 264.5,-74.21 270.48,-62.99"/>
</g>
<!-- 2M&#45;&#45;5L -->
<g id="edge10" class="edge">
<title>2M&#45;&#45;5L</title>
<path fill="none" stroke="transparent" d="M226.16,-145.35C231.8,-129.49 265.52,-34.64 270.76,-19.92"/>
</g>
<!-- 3M -->
<g id="node28" class="node">
<title>3M</title>
<ellipse fill="black" stroke="black" cx="225.36" cy="-104.4" rx="2" ry="2"/>
<text text-anchor="middle" x="225.36" y="-104.1" font-family="Times,serif" font-size="1.00">3M</text>
</g>
<!-- 3M&#45;&#45;1L -->
<g id="edge11" class="edge">
<title>3M&#45;&#45;1L</title>
<path fill="none" stroke="transparent" d="M226.32,-106.2C232.32,-117.45 264.5,-177.79 270.48,-189.01"/>
</g>
<!-- 3M&#45;&#45;2L -->
<g id="edge12" class="edge">
<title>3M&#45;&#45;2L</title>
<path fill="none" stroke="transparent" d="M226.89,-105.84C233.89,-112.4 262.75,-139.45 269.85,-146.11"/>
</g>
<!-- 3M&#45;&#45;3L -->
<g id="edge13" class="edge">
<title>3M&#45;&#45;3L</title>
<path fill="none" stroke="transparent" d="M227.58,-104.4C235.35,-104.4 261.23,-104.4 269.13,-104.4"/>
</g>
<!-- 3M&#45;&#45;4L -->
<g id="edge14" class="edge">
<title>3M&#45;&#45;4L</title>
<path fill="none" stroke="transparent" d="M226.89,-102.96C233.89,-96.4 262.75,-69.35 269.85,-62.69"/>
</g>
<!-- 3M&#45;&#45;5L -->
<g id="edge15" class="edge">
<title>3M&#45;&#45;5L</title>
<path fill="none" stroke="transparent" d="M226.32,-102.6C232.32,-91.35 264.5,-31.01 270.48,-19.79"/>
</g>
<!-- 4M -->
<g id="node29" class="node">
<title>4M</title>
<ellipse fill="black" stroke="black" cx="225.36" cy="-61.2" rx="2" ry="2"/>
<text text-anchor="middle" x="225.36" y="-60.9" font-family="Times,serif" font-size="1.00">4M</text>
</g>
<!-- 4M&#45;&#45;1L -->
<g id="edge16" class="edge">
<title>4M&#45;&#45;1L</title>
<path fill="none" stroke="transparent" d="M226.16,-63.45C231.8,-79.31 265.52,-174.16 270.76,-188.88"/>
</g>
<!-- 4M&#45;&#45;2L -->
<g id="edge17" class="edge">
<title>4M&#45;&#45;2L</title>
<path fill="none" stroke="transparent" d="M226.32,-63C232.32,-74.25 264.5,-134.59 270.48,-145.81"/>
</g>
<!-- 4M&#45;&#45;3L -->
<g id="edge18" class="edge">
<title>4M&#45;&#45;3L</title>
<path fill="none" stroke="transparent" d="M226.89,-62.64C233.89,-69.2 262.75,-96.25 269.85,-102.91"/>
</g>
<!-- 4M&#45;&#45;4L -->
<g id="edge19" class="edge">
<title>4M&#45;&#45;4L</title>
<path fill="none" stroke="transparent" d="M227.58,-61.2C235.35,-61.2 261.23,-61.2 269.13,-61.2"/>
</g>
<!-- 4M&#45;&#45;5L -->
<g id="edge20" class="edge">
<title>4M&#45;&#45;5L</title>
<path fill="none" stroke="transparent" d="M226.89,-59.76C233.89,-53.2 262.75,-26.15 269.85,-19.49"/>
</g>
<!-- 5M -->
<g id="node30" class="node">
<title>5M</title>
<ellipse fill="black" stroke="black" cx="225.36" cy="-18" rx="2" ry="2"/>
<text text-anchor="middle" x="225.36" y="-17.7" font-family="Times,serif" font-size="1.00">5M</text>
</g>
<!-- 5M&#45;&#45;1L -->
<g id="edge21" class="edge">
<title>5M&#45;&#45;1L</title>
<path fill="none" stroke="transparent" d="M225.88,-19.94C230.58,-37.59 265.92,-170.1 270.87,-188.65"/>
</g>
<!-- 5M&#45;&#45;2L -->
<g id="edge22" class="edge">
<title>5M&#45;&#45;2L</title>
<path fill="none" stroke="transparent" d="M226.16,-20.25C231.8,-36.11 265.52,-130.96 270.76,-145.68"/>
</g>
<!-- 5M&#45;&#45;3L -->
<g id="edge23" class="edge">
<title>5M&#45;&#45;3L</title>
<path fill="none" stroke="transparent" d="M226.32,-19.8C232.32,-31.05 264.5,-91.39 270.48,-102.61"/>
</g>
<!-- 5M&#45;&#45;4L -->
<g id="edge24" class="edge">
<title>5M&#45;&#45;4L</title>
<path fill="none" stroke="transparent" d="M226.89,-19.44C233.89,-26 262.75,-53.05 269.85,-59.71"/>
</g>
<!-- 5M&#45;&#45;5L -->
<g id="edge25" class="edge">
<title>5M&#45;&#45;5L</title>
<path fill="none" stroke="transparent" d="M227.58,-18C235.35,-18 261.23,-18 269.13,-18"/>
</g>
<!-- 1L4M -->
<g id="node31" class="node">
<title>1L4M</title>
<ellipse fill="#ff69b4" stroke="black" cx="306" cy="-190.8" rx="18" ry="18"/>
<text text-anchor="middle" x="306" y="-187.1" font-family="Times,serif" font-size="14.00">4</text>
</g>
<!-- 1L1M -->
<g id="node32" class="node">
<title>1L1M</title>
<ellipse fill="#ff69b4" stroke="black" cx="349.2" cy="-190.8" rx="18" ry="18"/>
<text text-anchor="middle" x="349.2" y="-187.1" font-family="Times,serif" font-size="14.00">1</text>
</g>
<!-- 1L3M -->
<g id="node33" class="node">
<title>1L3M</title>
<ellipse fill="#ff69b4" stroke="black" cx="392.4" cy="-190.8" rx="18" ry="18"/>
<text text-anchor="middle" x="392.4" y="-187.1" font-family="Times,serif" font-size="14.00">3</text>
</g>
<!-- 1L2M -->
<g id="node34" class="node">
<title>1L2M</title>
<ellipse fill="#ff69b4" stroke="black" cx="435.6" cy="-190.8" rx="18" ry="18"/>
<text text-anchor="middle" x="435.6" y="-187.1" font-family="Times,serif" font-size="14.00">2</text>
</g>
<!-- 1L5M -->
<g id="node35" class="node">
<title>1L5M</title>
<ellipse fill="#ff69b4" stroke="black" cx="478.8" cy="-190.8" rx="18" ry="18"/>
<text text-anchor="middle" x="478.8" y="-187.1" font-family="Times,serif" font-size="14.00">5</text>
</g>
<!-- 2L5M -->
<g id="node36" class="node">
<title>2L5M</title>
<ellipse fill="#ff69b4" stroke="black" cx="306" cy="-147.6" rx="18" ry="18"/>
<text text-anchor="middle" x="306" y="-143.9" font-family="Times,serif" font-size="14.00">5</text>
</g>
<!-- 2L1M -->
<g id="node37" class="node">
<title>2L1M</title>
<ellipse fill="#ff69b4" stroke="black" cx="349.2" cy="-147.6" rx="18" ry="18"/>
<text text-anchor="middle" x="349.2" y="-143.9" font-family="Times,serif" font-size="14.00">1</text>
</g>
<!-- 2L2M -->
<g id="node38" class="node">
<title>2L2M</title>
<ellipse fill="#ff69b4" stroke="black" cx="392.4" cy="-147.6" rx="18" ry="18"/>
<text text-anchor="middle" x="392.4" y="-143.9" font-family="Times,serif" font-size="14.00">2</text>
</g>
<!-- 2L3M -->
<g id="node39" class="node">
<title>2L3M</title>
<ellipse fill="#ff69b4" stroke="black" cx="435.6" cy="-147.6" rx="18" ry="18"/>
<text text-anchor="middle" x="435.6" y="-143.9" font-family="Times,serif" font-size="14.00">3</text>
</g>
<!-- 2L4M -->
<g id="node40" class="node">
<title>2L4M</title>
<ellipse fill="#ff69b4" stroke="black" cx="478.8" cy="-147.6" rx="18" ry="18"/>
<text text-anchor="middle" x="478.8" y="-143.9" font-family="Times,serif" font-size="14.00">4</text>
</g>
<!-- 3L2M -->
<g id="node41" class="node">
<title>3L2M</title>
<ellipse fill="#ff69b4" stroke="black" cx="306" cy="-104.4" rx="18" ry="18"/>
<text text-anchor="middle" x="306" y="-100.7" font-family="Times,serif" font-size="14.00">2</text>
</g>
<!-- 3L3M -->
<g id="node42" class="node">
<title>3L3M</title>
<ellipse fill="#ff69b4" stroke="black" cx="349.2" cy="-104.4" rx="18" ry="18"/>
<text text-anchor="middle" x="349.2" y="-100.7" font-family="Times,serif" font-size="14.00">3</text>
</g>
<!-- 3L1M -->
<g id="node43" class="node">
<title>3L1M</title>
<ellipse fill="#ff69b4" stroke="black" cx="392.4" cy="-104.4" rx="18" ry="18"/>
<text text-anchor="middle" x="392.4" y="-100.7" font-family="Times,serif" font-size="14.00">1</text>
</g>
<!-- 3L5M -->
<g id="node44" class="node">
<title>3L5M</title>
<ellipse fill="#ff69b4" stroke="black" cx="435.6" cy="-104.4" rx="18" ry="18"/>
<text text-anchor="middle" x="435.6" y="-100.7" font-family="Times,serif" font-size="14.00">5</text>
</g>
<!-- 3L4M -->
<g id="node45" class="node">
<title>3L4M</title>
<ellipse fill="#ff69b4" stroke="black" cx="478.8" cy="-104.4" rx="18" ry="18"/>
<text text-anchor="middle" x="478.8" y="-100.7" font-family="Times,serif" font-size="14.00">4</text>
</g>
<!-- 4L3M -->
<g id="node46" class="node">
<title>4L3M</title>
<ellipse fill="#ff69b4" stroke="black" cx="306" cy="-61.2" rx="18" ry="18"/>
<text text-anchor="middle" x="306" y="-57.5" font-family="Times,serif" font-size="14.00">3</text>
</g>
<!-- 4L4M -->
<g id="node47" class="node">
<title>4L4M</title>
<ellipse fill="#ff69b4" stroke="black" cx="349.2" cy="-61.2" rx="18" ry="18"/>
<text text-anchor="middle" x="349.2" y="-57.5" font-family="Times,serif" font-size="14.00">4</text>
</g>
<!-- 4L2M -->
<g id="node48" class="node">
<title>4L2M</title>
<ellipse fill="#ff69b4" stroke="black" cx="392.4" cy="-61.2" rx="18" ry="18"/>
<text text-anchor="middle" x="392.4" y="-57.5" font-family="Times,serif" font-size="14.00">2</text>
</g>
<!-- 4L5M -->
<g id="node49" class="node">
<title>4L5M</title>
<ellipse fill="#ff69b4" stroke="black" cx="435.6" cy="-61.2" rx="18" ry="18"/>
<text text-anchor="middle" x="435.6" y="-57.5" font-family="Times,serif" font-size="14.00">5</text>
</g>
<!-- 4L1M -->
<g id="node50" class="node">
<title>4L1M</title>
<ellipse fill="#ff69b4" stroke="black" cx="478.8" cy="-61.2" rx="18" ry="18"/>
<text text-anchor="middle" x="478.8" y="-57.5" font-family="Times,serif" font-size="14.00">1</text>
</g>
<!-- 5L3M -->
<g id="node51" class="node">
<title>5L3M</title>
<ellipse fill="#ff69b4" stroke="black" cx="306" cy="-18" rx="18" ry="18"/>
<text text-anchor="middle" x="306" y="-14.3" font-family="Times,serif" font-size="14.00">3</text>
</g>
<!-- 5L1M -->
<g id="node52" class="node">
<title>5L1M</title>
<ellipse fill="#ff69b4" stroke="black" cx="349.2" cy="-18" rx="18" ry="18"/>
<text text-anchor="middle" x="349.2" y="-14.3" font-family="Times,serif" font-size="14.00">1</text>
</g>
<!-- 5L5M -->
<g id="node53" class="node">
<title>5L5M</title>
<ellipse fill="#ff69b4" stroke="black" cx="392.4" cy="-18" rx="18" ry="18"/>
<text text-anchor="middle" x="392.4" y="-14.3" font-family="Times,serif" font-size="14.00">5</text>
</g>
<!-- 5L2M -->
<g id="node54" class="node">
<title>5L2M</title>
<ellipse fill="#ff69b4" stroke="black" cx="435.6" cy="-18" rx="18" ry="18"/>
<text text-anchor="middle" x="435.6" y="-14.3" font-family="Times,serif" font-size="14.00">2</text>
</g>
<!-- 5L4M -->
<g id="node55" class="node">
<title>5L4M</title>
<ellipse fill="#ff69b4" stroke="black" cx="478.8" cy="-18" rx="18" ry="18"/>
<text text-anchor="middle" x="478.8" y="-14.3" font-family="Times,serif" font-size="14.00">4</text>
</g>
</g>
</svg>
