<?xml version="1.0" encoding="UTF-8" standalone="no"?>
<!DOCTYPE svg PUBLIC "-//W3C//DTD SVG 1.1//EN"
 "http://www.w3.org/Graphics/SVG/1.1/DTD/svg11.dtd">
<!-- Generated by graphviz version 2.44.1 (20200629.0846)
 -->
<!-- Pages: 1 -->
<svg width="368pt" height="202pt"
 viewBox="0.00 0.00 368.00 202.40" xmlns="http://www.w3.org/2000/svg" xmlns:xlink="http://www.w3.org/1999/xlink">
<g id="graph0" class="graph" transform="scale(1 1) rotate(0) translate(4 198.4)">
<polygon fill="white" stroke="transparent" points="-4,4 -4,-198.4 364,-198.4 364,4 -4,4"/>
<!-- 0 -->
<g id="node1" class="node">
<title>0</title>
<ellipse fill="red" stroke="black" cx="18" cy="-90" rx="18" ry="18"/>
<text text-anchor="middle" x="18" y="-86.3" font-family="Times,serif" font-size="14.00">0</text>
</g>
<!-- 1 -->
<g id="node2" class="node">
<title>1</title>
<ellipse fill="red" stroke="black" cx="90" cy="-162" rx="18" ry="18"/>
<text text-anchor="middle" x="90" y="-158.3" font-family="Times,serif" font-size="14.00">1</text>
</g>
<!-- 0&#45;&gt;1 -->
<g id="edge1" class="edge">
<title>0&#45;&gt;1</title>
<path fill="none" stroke="red" d="M30.87,-102.87C41.73,-113.73 57.44,-129.44 69.94,-141.94"/>
<polygon fill="red" stroke="red" points="67.69,-144.64 77.24,-149.24 72.64,-139.69 67.69,-144.64"/>
<text text-anchor="middle" x="35.41" y="-126.21" font-family="Times,serif" font-size="14.00">10(9)</text>
</g>
<!-- 2 -->
<g id="node3" class="node">
<title>2</title>
<ellipse fill="white" stroke="black" cx="198" cy="-18" rx="18" ry="18"/>
<text text-anchor="middle" x="198" y="-14.3" font-family="Times,serif" font-size="14.00">2</text>
</g>
<!-- 0&#45;&gt;2 -->
<g id="edge2" class="edge">
<title>0&#45;&gt;2</title>
<path fill="none" stroke="black" d="M34.93,-83.23C66.37,-70.65 133.97,-43.61 171.51,-28.6"/>
<polygon fill="black" stroke="black" points="173.26,-31.67 181.24,-24.7 170.66,-25.17 173.26,-31.67"/>
<text text-anchor="middle" x="91.72" y="-59.71" font-family="Times,serif" font-size="14.00">2(2)</text>
</g>
<!-- 1&#45;&gt;2 -->
<g id="edge3" class="edge">
<title>1&#45;&gt;2</title>
<path fill="none" stroke="black" d="M100.95,-147.4C119.79,-122.28 158.47,-70.71 180.89,-40.81"/>
<polygon fill="black" stroke="black" points="183.82,-42.74 187.02,-32.64 178.22,-38.54 183.82,-42.74"/>
<text text-anchor="middle" x="129.42" y="-97.91" font-family="Times,serif" font-size="14.00">6(3)</text>
</g>
<!-- 3 -->
<g id="node4" class="node">
<title>3</title>
<ellipse fill="red" stroke="black" cx="234" cy="-176.4" rx="18" ry="18"/>
<text text-anchor="middle" x="234" y="-172.7" font-family="Times,serif" font-size="14.00">3</text>
</g>
<!-- 1&#45;&gt;3 -->
<g id="edge4" class="edge">
<title>1&#45;&gt;3</title>
<path fill="none" stroke="red" d="M107.95,-163.79C132.41,-166.24 176.51,-170.65 205.52,-173.55"/>
<polygon fill="red" stroke="red" points="205.53,-177.07 215.83,-174.58 206.23,-170.1 205.53,-177.07"/>
<text text-anchor="middle" x="145.23" y="-172.47" font-family="Times,serif" font-size="14.00">6(6)</text>
</g>
<!-- 4 -->
<g id="node5" class="node">
<title>4</title>
<ellipse fill="red" stroke="black" cx="342" cy="-90" rx="18" ry="18"/>
<text text-anchor="middle" x="342" y="-86.3" font-family="Times,serif" font-size="14.00">4</text>
</g>
<!-- 2&#45;&gt;4 -->
<g id="edge6" class="edge">
<title>2&#45;&gt;4</title>
<path fill="none" stroke="black" d="M214.24,-26.12C239.09,-38.54 286.76,-62.38 316.33,-77.16"/>
<polygon fill="black" stroke="black" points="315.09,-80.46 325.6,-81.8 318.22,-74.2 315.09,-80.46"/>
<text text-anchor="middle" x="253.78" y="-55.44" font-family="Times,serif" font-size="14.00">5(5)</text>
</g>
<!-- 3&#45;&gt;2 -->
<g id="edge5" class="edge">
<title>3&#45;&gt;2</title>
<path fill="none" stroke="black" d="M230.01,-158.84C223.77,-131.37 211.64,-77.99 204.23,-45.42"/>
<polygon fill="black" stroke="black" points="207.64,-44.61 202.01,-35.64 200.81,-46.16 207.64,-44.61"/>
<text text-anchor="middle" x="205.62" y="-105.93" font-family="Times,serif" font-size="14.00">3(0)</text>
</g>
<!-- 3&#45;&gt;4 -->
<g id="edge7" class="edge">
<title>3&#45;&gt;4</title>
<path fill="none" stroke="red" d="M248.12,-165.1C266.39,-150.49 298.43,-124.86 319.93,-107.66"/>
<polygon fill="red" stroke="red" points="322.26,-110.28 327.88,-101.3 317.88,-104.81 322.26,-110.28"/>
<text text-anchor="middle" x="272.52" y="-140.18" font-family="Times,serif" font-size="14.00">8(6)</text>
</g>
</g>
</svg>
