<?xml version="1.0" encoding="UTF-8" standalone="no"?>
<!DOCTYPE svg PUBLIC "-//W3C//DTD SVG 1.1//EN"
 "http://www.w3.org/Graphics/SVG/1.1/DTD/svg11.dtd">
<!-- Generated by graphviz version 2.44.1 (20200629.0846)
 -->
<!-- Pages: 1 -->
<svg width="501pt" height="342pt"
 viewBox="0.00 0.00 500.80 342.08" xmlns="http://www.w3.org/2000/svg" xmlns:xlink="http://www.w3.org/1999/xlink">
<g id="graph0" class="graph" transform="scale(1 1) rotate(0) translate(4 338.08)">
<polygon fill="white" stroke="transparent" points="-4,4 -4,-338.08 496.8,-338.08 496.8,4 -4,4"/>
<!-- 00 -->
<g id="node1" class="node">
<title>00</title>
<ellipse fill="none" stroke="black" cx="77" cy="-277.2" rx="18" ry="18"/>
<text text-anchor="middle" x="77" y="-273.5" font-family="Times,serif" font-size="14.00">0</text>
</g>
<!-- 10 -->
<g id="node11" class="node">
<title>10</title>
<ellipse fill="none" stroke="black" cx="77" cy="-234" rx="18" ry="18"/>
<text text-anchor="middle" x="77" y="-230.3" font-family="Times,serif" font-size="14.00">0</text>
</g>
<!-- 00&#45;&gt;10 -->
<g id="edge1" class="edge">
<title>00&#45;&gt;10</title>
<path fill="none" stroke="gray" d="M77,-259.13C77,-258.99 77,-258.84 77,-258.7"/>
<polygon fill="gray" stroke="gray" points="80.5,-262.14 77,-252.14 73.5,-262.14 80.5,-262.14"/>
</g>
<!-- 12 -->
<g id="node13" class="node">
<title>12</title>
<ellipse fill="none" stroke="black" cx="163.4" cy="-234" rx="18" ry="18"/>
<text text-anchor="middle" x="163.4" y="-230.3" font-family="Times,serif" font-size="14.00">3</text>
</g>
<!-- 00&#45;&gt;12 -->
<g id="edge3" class="edge">
<title>00&#45;&gt;12</title>
<path fill="none" stroke="black" d="M93.25,-269.07C105.92,-262.74 123.74,-253.83 138.25,-246.57"/>
<polygon fill="black" stroke="black" points="139.84,-249.69 147.22,-242.09 136.71,-243.43 139.84,-249.69"/>
</g>
<!-- 01 -->
<g id="node2" class="node">
<title>01</title>
<ellipse fill="none" stroke="black" cx="120.2" cy="-277.2" rx="18" ry="18"/>
<text text-anchor="middle" x="120.2" y="-273.5" font-family="Times,serif" font-size="14.00">0</text>
</g>
<!-- 11 -->
<g id="node12" class="node">
<title>11</title>
<ellipse fill="none" stroke="black" cx="120.2" cy="-234" rx="18" ry="18"/>
<text text-anchor="middle" x="120.2" y="-230.3" font-family="Times,serif" font-size="14.00">0</text>
</g>
<!-- 01&#45;&gt;11 -->
<g id="edge2" class="edge">
<title>01&#45;&gt;11</title>
<path fill="none" stroke="gray" d="M120.2,-259.13C120.2,-258.99 120.2,-258.84 120.2,-258.7"/>
<polygon fill="gray" stroke="gray" points="123.7,-262.14 120.2,-252.14 116.7,-262.14 123.7,-262.14"/>
</g>
<!-- 13 -->
<g id="node14" class="node">
<title>13</title>
<ellipse fill="none" stroke="black" cx="206.6" cy="-234" rx="18" ry="18"/>
<text text-anchor="middle" x="206.6" y="-230.3" font-family="Times,serif" font-size="14.00">3</text>
</g>
<!-- 01&#45;&gt;13 -->
<g id="edge4" class="edge">
<title>01&#45;&gt;13</title>
<path fill="none" stroke="black" d="M136.45,-269.07C149.12,-262.74 166.94,-253.83 181.45,-246.57"/>
<polygon fill="black" stroke="black" points="183.04,-249.69 190.42,-242.09 179.91,-243.43 183.04,-249.69"/>
</g>
<!-- 02 -->
<g id="node3" class="node">
<title>02</title>
<ellipse fill="none" stroke="black" cx="163.4" cy="-277.2" rx="18" ry="18"/>
<text text-anchor="middle" x="163.4" y="-273.5" font-family="Times,serif" font-size="14.00">0</text>
</g>
<!-- 14 -->
<g id="node15" class="node">
<title>14</title>
<ellipse fill="none" stroke="black" cx="249.8" cy="-234" rx="18" ry="18"/>
<text text-anchor="middle" x="249.8" y="-230.3" font-family="Times,serif" font-size="14.00">3</text>
</g>
<!-- 02&#45;&gt;14 -->
<g id="edge5" class="edge">
<title>02&#45;&gt;14</title>
<path fill="none" stroke="black" d="M179.65,-269.07C192.32,-262.74 210.14,-253.83 224.65,-246.57"/>
<polygon fill="black" stroke="black" points="226.24,-249.69 233.62,-242.09 223.11,-243.43 226.24,-249.69"/>
</g>
<!-- 03 -->
<g id="node4" class="node">
<title>03</title>
<ellipse fill="none" stroke="black" cx="206.6" cy="-277.2" rx="18" ry="18"/>
<text text-anchor="middle" x="206.6" y="-273.5" font-family="Times,serif" font-size="14.00">0</text>
</g>
<!-- 15 -->
<g id="node16" class="node">
<title>15</title>
<ellipse fill="none" stroke="black" cx="293" cy="-234" rx="18" ry="18"/>
<text text-anchor="middle" x="293" y="-230.3" font-family="Times,serif" font-size="14.00">3</text>
</g>
<!-- 03&#45;&gt;15 -->
<g id="edge6" class="edge">
<title>03&#45;&gt;15</title>
<path fill="none" stroke="black" d="M222.85,-269.07C235.52,-262.74 253.34,-253.83 267.85,-246.57"/>
<polygon fill="black" stroke="black" points="269.44,-249.69 276.82,-242.09 266.31,-243.43 269.44,-249.69"/>
</g>
<!-- 04 -->
<g id="node5" class="node">
<title>04</title>
<ellipse fill="none" stroke="black" cx="249.8" cy="-277.2" rx="18" ry="18"/>
<text text-anchor="middle" x="249.8" y="-273.5" font-family="Times,serif" font-size="14.00">0</text>
</g>
<!-- 16 -->
<g id="node17" class="node">
<title>16</title>
<ellipse fill="none" stroke="black" cx="336.2" cy="-234" rx="18" ry="18"/>
<text text-anchor="middle" x="336.2" y="-230.3" font-family="Times,serif" font-size="14.00">3</text>
</g>
<!-- 04&#45;&gt;16 -->
<g id="edge7" class="edge">
<title>04&#45;&gt;16</title>
<path fill="none" stroke="black" d="M266.05,-269.07C278.72,-262.74 296.54,-253.83 311.05,-246.57"/>
<polygon fill="black" stroke="black" points="312.64,-249.69 320.02,-242.09 309.51,-243.43 312.64,-249.69"/>
</g>
<!-- 05 -->
<g id="node6" class="node">
<title>05</title>
<ellipse fill="none" stroke="black" cx="293" cy="-277.2" rx="18" ry="18"/>
<text text-anchor="middle" x="293" y="-273.5" font-family="Times,serif" font-size="14.00">0</text>
</g>
<!-- 17 -->
<g id="node18" class="node">
<title>17</title>
<ellipse fill="none" stroke="black" cx="379.4" cy="-234" rx="18" ry="18"/>
<text text-anchor="middle" x="379.4" y="-230.3" font-family="Times,serif" font-size="14.00">3</text>
</g>
<!-- 05&#45;&gt;17 -->
<g id="edge8" class="edge">
<title>05&#45;&gt;17</title>
<path fill="none" stroke="black" d="M309.25,-269.07C321.92,-262.74 339.74,-253.83 354.25,-246.57"/>
<polygon fill="black" stroke="black" points="355.84,-249.69 363.22,-242.09 352.71,-243.43 355.84,-249.69"/>
</g>
<!-- 06 -->
<g id="node7" class="node">
<title>06</title>
<ellipse fill="none" stroke="black" cx="336.2" cy="-277.2" rx="18" ry="18"/>
<text text-anchor="middle" x="336.2" y="-273.5" font-family="Times,serif" font-size="14.00">0</text>
</g>
<!-- 18 -->
<g id="node19" class="node">
<title>18</title>
<ellipse fill="none" stroke="black" cx="422.6" cy="-234" rx="18" ry="18"/>
<text text-anchor="middle" x="422.6" y="-230.3" font-family="Times,serif" font-size="14.00">3</text>
</g>
<!-- 06&#45;&gt;18 -->
<g id="edge9" class="edge">
<title>06&#45;&gt;18</title>
<path fill="none" stroke="black" d="M352.45,-269.07C365.12,-262.74 382.94,-253.83 397.45,-246.57"/>
<polygon fill="black" stroke="black" points="399.04,-249.69 406.42,-242.09 395.91,-243.43 399.04,-249.69"/>
</g>
<!-- 07 -->
<g id="node8" class="node">
<title>07</title>
<ellipse fill="none" stroke="black" cx="379.4" cy="-277.2" rx="18" ry="18"/>
<text text-anchor="middle" x="379.4" y="-273.5" font-family="Times,serif" font-size="14.00">0</text>
</g>
<!-- 19 -->
<g id="node20" class="node">
<title>19</title>
<ellipse fill="none" stroke="black" cx="465.8" cy="-234" rx="18" ry="18"/>
<text text-anchor="middle" x="465.8" y="-230.3" font-family="Times,serif" font-size="14.00">3</text>
</g>
<!-- 07&#45;&gt;19 -->
<g id="edge10" class="edge">
<title>07&#45;&gt;19</title>
<path fill="none" stroke="black" d="M395.65,-269.07C408.32,-262.74 426.14,-253.83 440.65,-246.57"/>
<polygon fill="black" stroke="black" points="442.24,-249.69 449.62,-242.09 439.11,-243.43 442.24,-249.69"/>
</g>
<!-- 08 -->
<g id="node9" class="node">
<title>08</title>
<ellipse fill="none" stroke="black" cx="422.6" cy="-277.2" rx="18" ry="18"/>
<text text-anchor="middle" x="422.6" y="-273.5" font-family="Times,serif" font-size="14.00">0</text>
</g>
<!-- 09 -->
<g id="node10" class="node">
<title>09</title>
<ellipse fill="none" stroke="black" cx="465.8" cy="-277.2" rx="18" ry="18"/>
<text text-anchor="middle" x="465.8" y="-273.5" font-family="Times,serif" font-size="14.00">0</text>
</g>
<!-- 20 -->
<g id="node21" class="node">
<title>20</title>
<ellipse fill="none" stroke="black" cx="77" cy="-190.8" rx="18" ry="18"/>
<text text-anchor="middle" x="77" y="-187.1" font-family="Times,serif" font-size="14.00">0</text>
</g>
<!-- 10&#45;&gt;20 -->
<g id="edge11" class="edge">
<title>10&#45;&gt;20</title>
<path fill="none" stroke="gray" d="M77,-215.93C77,-215.79 77,-215.64 77,-215.5"/>
<polygon fill="gray" stroke="gray" points="80.5,-218.94 77,-208.94 73.5,-218.94 80.5,-218.94"/>
</g>
<!-- 21 -->
<g id="node22" class="node">
<title>21</title>
<ellipse fill="none" stroke="black" cx="120.2" cy="-190.8" rx="18" ry="18"/>
<text text-anchor="middle" x="120.2" y="-187.1" font-family="Times,serif" font-size="14.00">2</text>
</g>
<!-- 10&#45;&gt;21 -->
<g id="edge12" class="edge">
<title>10&#45;&gt;21</title>
<path fill="none" stroke="black" d="M90.19,-220.8C93.35,-217.65 96.79,-214.21 100.18,-210.82"/>
<polygon fill="black" stroke="black" points="102.78,-213.16 107.38,-203.62 97.83,-208.22 102.78,-213.16"/>
</g>
<!-- 22 -->
<g id="node23" class="node">
<title>22</title>
<ellipse fill="none" stroke="black" cx="163.4" cy="-190.8" rx="18" ry="18"/>
<text text-anchor="middle" x="163.4" y="-187.1" font-family="Times,serif" font-size="14.00">3</text>
</g>
<!-- 12&#45;&gt;22 -->
<g id="edge13" class="edge">
<title>12&#45;&gt;22</title>
<path fill="none" stroke="gray" d="M163.4,-215.93C163.4,-215.79 163.4,-215.64 163.4,-215.5"/>
<polygon fill="gray" stroke="gray" points="166.9,-218.94 163.4,-208.94 159.9,-218.94 166.9,-218.94"/>
</g>
<!-- 23 -->
<g id="node24" class="node">
<title>23</title>
<ellipse fill="none" stroke="black" cx="206.6" cy="-190.8" rx="18" ry="18"/>
<text text-anchor="middle" x="206.6" y="-187.1" font-family="Times,serif" font-size="14.00">5</text>
</g>
<!-- 12&#45;&gt;23 -->
<g id="edge14" class="edge">
<title>12&#45;&gt;23</title>
<path fill="none" stroke="black" d="M176.59,-220.8C179.75,-217.65 183.19,-214.21 186.58,-210.82"/>
<polygon fill="black" stroke="black" points="189.18,-213.16 193.78,-203.62 184.23,-208.22 189.18,-213.16"/>
</g>
<!-- 24 -->
<g id="node25" class="node">
<title>24</title>
<ellipse fill="none" stroke="black" cx="249.8" cy="-190.8" rx="18" ry="18"/>
<text text-anchor="middle" x="249.8" y="-187.1" font-family="Times,serif" font-size="14.00">5</text>
</g>
<!-- 13&#45;&gt;24 -->
<g id="edge15" class="edge">
<title>13&#45;&gt;24</title>
<path fill="none" stroke="black" d="M219.79,-220.8C222.95,-217.65 226.39,-214.21 229.78,-210.82"/>
<polygon fill="black" stroke="black" points="232.38,-213.16 236.98,-203.62 227.43,-208.22 232.38,-213.16"/>
</g>
<!-- 25 -->
<g id="node26" class="node">
<title>25</title>
<ellipse fill="none" stroke="black" cx="293" cy="-190.8" rx="18" ry="18"/>
<text text-anchor="middle" x="293" y="-187.1" font-family="Times,serif" font-size="14.00">5</text>
</g>
<!-- 14&#45;&gt;25 -->
<g id="edge16" class="edge">
<title>14&#45;&gt;25</title>
<path fill="none" stroke="black" d="M262.99,-220.8C266.15,-217.65 269.59,-214.21 272.98,-210.82"/>
<polygon fill="black" stroke="black" points="275.58,-213.16 280.18,-203.62 270.63,-208.22 275.58,-213.16"/>
</g>
<!-- 26 -->
<g id="node27" class="node">
<title>26</title>
<ellipse fill="none" stroke="black" cx="336.2" cy="-190.8" rx="18" ry="18"/>
<text text-anchor="middle" x="336.2" y="-187.1" font-family="Times,serif" font-size="14.00">5</text>
</g>
<!-- 15&#45;&gt;26 -->
<g id="edge17" class="edge">
<title>15&#45;&gt;26</title>
<path fill="none" stroke="black" d="M306.19,-220.8C309.35,-217.65 312.79,-214.21 316.18,-210.82"/>
<polygon fill="black" stroke="black" points="318.78,-213.16 323.38,-203.62 313.83,-208.22 318.78,-213.16"/>
</g>
<!-- 27 -->
<g id="node28" class="node">
<title>27</title>
<ellipse fill="none" stroke="black" cx="379.4" cy="-190.8" rx="18" ry="18"/>
<text text-anchor="middle" x="379.4" y="-187.1" font-family="Times,serif" font-size="14.00">5</text>
</g>
<!-- 16&#45;&gt;27 -->
<g id="edge18" class="edge">
<title>16&#45;&gt;27</title>
<path fill="none" stroke="black" d="M349.39,-220.8C352.55,-217.65 355.99,-214.21 359.38,-210.82"/>
<polygon fill="black" stroke="black" points="361.98,-213.16 366.58,-203.62 357.03,-208.22 361.98,-213.16"/>
</g>
<!-- 28 -->
<g id="node29" class="node">
<title>28</title>
<ellipse fill="none" stroke="black" cx="422.6" cy="-190.8" rx="18" ry="18"/>
<text text-anchor="middle" x="422.6" y="-187.1" font-family="Times,serif" font-size="14.00">5</text>
</g>
<!-- 17&#45;&gt;28 -->
<g id="edge19" class="edge">
<title>17&#45;&gt;28</title>
<path fill="none" stroke="black" d="M392.59,-220.8C395.75,-217.65 399.19,-214.21 402.58,-210.82"/>
<polygon fill="black" stroke="black" points="405.18,-213.16 409.78,-203.62 400.23,-208.22 405.18,-213.16"/>
</g>
<!-- 29 -->
<g id="node30" class="node">
<title>29</title>
<ellipse fill="none" stroke="black" cx="465.8" cy="-190.8" rx="18" ry="18"/>
<text text-anchor="middle" x="465.8" y="-187.1" font-family="Times,serif" font-size="14.00">5</text>
</g>
<!-- 18&#45;&gt;29 -->
<g id="edge20" class="edge">
<title>18&#45;&gt;29</title>
<path fill="none" stroke="black" d="M435.79,-220.8C438.95,-217.65 442.39,-214.21 445.78,-210.82"/>
<polygon fill="black" stroke="black" points="448.38,-213.16 452.98,-203.62 443.43,-208.22 448.38,-213.16"/>
</g>
<!-- 30 -->
<g id="node31" class="node">
<title>30</title>
<ellipse fill="none" stroke="black" cx="77" cy="-147.6" rx="18" ry="18"/>
<text text-anchor="middle" x="77" y="-143.9" font-family="Times,serif" font-size="14.00">0</text>
</g>
<!-- 20&#45;&gt;30 -->
<g id="edge21" class="edge">
<title>20&#45;&gt;30</title>
<path fill="none" stroke="gray" d="M77,-172.73C77,-172.59 77,-172.44 77,-172.3"/>
<polygon fill="gray" stroke="gray" points="80.5,-175.74 77,-165.74 73.5,-175.74 80.5,-175.74"/>
</g>
<!-- 33 -->
<g id="node34" class="node">
<title>33</title>
<ellipse fill="none" stroke="black" cx="206.6" cy="-147.6" rx="18" ry="18"/>
<text text-anchor="middle" x="206.6" y="-143.9" font-family="Times,serif" font-size="14.00">6</text>
</g>
<!-- 20&#45;&gt;33 -->
<g id="edge24" class="edge">
<title>20&#45;&gt;33</title>
<path fill="none" stroke="black" d="M94.21,-185.06C116.09,-177.77 154.11,-165.1 179.8,-156.53"/>
<polygon fill="black" stroke="black" points="180.94,-159.84 189.32,-153.36 178.72,-153.2 180.94,-159.84"/>
</g>
<!-- 31 -->
<g id="node32" class="node">
<title>31</title>
<ellipse fill="none" stroke="black" cx="120.2" cy="-147.6" rx="18" ry="18"/>
<text text-anchor="middle" x="120.2" y="-143.9" font-family="Times,serif" font-size="14.00">2</text>
</g>
<!-- 21&#45;&gt;31 -->
<g id="edge22" class="edge">
<title>21&#45;&gt;31</title>
<path fill="none" stroke="gray" d="M120.2,-172.73C120.2,-172.59 120.2,-172.44 120.2,-172.3"/>
<polygon fill="gray" stroke="gray" points="123.7,-175.74 120.2,-165.74 116.7,-175.74 123.7,-175.74"/>
</g>
<!-- 34 -->
<g id="node35" class="node">
<title>34</title>
<ellipse fill="none" stroke="black" cx="249.8" cy="-147.6" rx="18" ry="18"/>
<text text-anchor="middle" x="249.8" y="-143.9" font-family="Times,serif" font-size="14.00">8</text>
</g>
<!-- 21&#45;&gt;34 -->
<g id="edge25" class="edge">
<title>21&#45;&gt;34</title>
<path fill="none" stroke="black" d="M137.41,-185.06C159.29,-177.77 197.31,-165.1 223,-156.53"/>
<polygon fill="black" stroke="black" points="224.14,-159.84 232.52,-153.36 221.92,-153.2 224.14,-159.84"/>
</g>
<!-- 32 -->
<g id="node33" class="node">
<title>32</title>
<ellipse fill="none" stroke="black" cx="163.4" cy="-147.6" rx="18" ry="18"/>
<text text-anchor="middle" x="163.4" y="-143.9" font-family="Times,serif" font-size="14.00">3</text>
</g>
<!-- 22&#45;&gt;32 -->
<g id="edge23" class="edge">
<title>22&#45;&gt;32</title>
<path fill="none" stroke="gray" d="M163.4,-172.73C163.4,-172.59 163.4,-172.44 163.4,-172.3"/>
<polygon fill="gray" stroke="gray" points="166.9,-175.74 163.4,-165.74 159.9,-175.74 166.9,-175.74"/>
</g>
<!-- 35 -->
<g id="node36" class="node">
<title>35</title>
<ellipse fill="none" stroke="black" cx="293" cy="-147.6" rx="18" ry="18"/>
<text text-anchor="middle" x="293" y="-143.9" font-family="Times,serif" font-size="14.00">9</text>
</g>
<!-- 22&#45;&gt;35 -->
<g id="edge26" class="edge">
<title>22&#45;&gt;35</title>
<path fill="none" stroke="black" d="M180.61,-185.06C202.49,-177.77 240.51,-165.1 266.2,-156.53"/>
<polygon fill="black" stroke="black" points="267.34,-159.84 275.72,-153.36 265.12,-153.2 267.34,-159.84"/>
</g>
<!-- 36 -->
<g id="node37" class="node">
<title>36</title>
<ellipse fill="none" stroke="black" cx="336.2" cy="-147.6" rx="18" ry="18"/>
<text text-anchor="middle" x="336.2" y="-143.9" font-family="Times,serif" font-size="14.00">11</text>
</g>
<!-- 23&#45;&gt;36 -->
<g id="edge27" class="edge">
<title>23&#45;&gt;36</title>
<path fill="none" stroke="black" d="M223.81,-185.06C245.69,-177.77 283.71,-165.1 309.4,-156.53"/>
<polygon fill="black" stroke="black" points="310.54,-159.84 318.92,-153.36 308.32,-153.2 310.54,-159.84"/>
</g>
<!-- 37 -->
<g id="node38" class="node">
<title>37</title>
<ellipse fill="none" stroke="black" cx="379.4" cy="-147.6" rx="18" ry="18"/>
<text text-anchor="middle" x="379.4" y="-143.9" font-family="Times,serif" font-size="14.00">11</text>
</g>
<!-- 24&#45;&gt;37 -->
<g id="edge28" class="edge">
<title>24&#45;&gt;37</title>
<path fill="none" stroke="black" d="M267.01,-185.06C288.89,-177.77 326.91,-165.1 352.6,-156.53"/>
<polygon fill="black" stroke="black" points="353.74,-159.84 362.12,-153.36 351.52,-153.2 353.74,-159.84"/>
</g>
<!-- 38 -->
<g id="node39" class="node">
<title>38</title>
<ellipse fill="none" stroke="black" cx="422.6" cy="-147.6" rx="18" ry="18"/>
<text text-anchor="middle" x="422.6" y="-143.9" font-family="Times,serif" font-size="14.00">11</text>
</g>
<!-- 25&#45;&gt;38 -->
<g id="edge29" class="edge">
<title>25&#45;&gt;38</title>
<path fill="none" stroke="black" d="M310.21,-185.06C332.09,-177.77 370.11,-165.1 395.8,-156.53"/>
<polygon fill="black" stroke="black" points="396.94,-159.84 405.32,-153.36 394.72,-153.2 396.94,-159.84"/>
</g>
<!-- 39 -->
<g id="node40" class="node">
<title>39</title>
<ellipse fill="none" stroke="black" cx="465.8" cy="-147.6" rx="18" ry="18"/>
<text text-anchor="middle" x="465.8" y="-143.9" font-family="Times,serif" font-size="14.00">11</text>
</g>
<!-- 26&#45;&gt;39 -->
<g id="edge30" class="edge">
<title>26&#45;&gt;39</title>
<path fill="none" stroke="black" d="M353.41,-185.06C375.29,-177.77 413.31,-165.1 439,-156.53"/>
<polygon fill="black" stroke="black" points="440.14,-159.84 448.52,-153.36 437.92,-153.2 440.14,-159.84"/>
</g>
<!-- 40 -->
<g id="node41" class="node">
<title>40</title>
<ellipse fill="none" stroke="black" cx="77" cy="-104.4" rx="18" ry="18"/>
<text text-anchor="middle" x="77" y="-100.7" font-family="Times,serif" font-size="14.00">0</text>
</g>
<!-- 41 -->
<g id="node42" class="node">
<title>41</title>
<ellipse fill="none" stroke="black" cx="120.2" cy="-104.4" rx="18" ry="18"/>
<text text-anchor="middle" x="120.2" y="-100.7" font-family="Times,serif" font-size="14.00">0</text>
</g>
<!-- 42 -->
<g id="node43" class="node">
<title>42</title>
<ellipse fill="none" stroke="black" cx="163.4" cy="-104.4" rx="18" ry="18"/>
<text text-anchor="middle" x="163.4" y="-100.7" font-family="Times,serif" font-size="14.00">0</text>
</g>
<!-- 43 -->
<g id="node44" class="node">
<title>43</title>
<ellipse fill="none" stroke="black" cx="206.6" cy="-104.4" rx="18" ry="18"/>
<text text-anchor="middle" x="206.6" y="-100.7" font-family="Times,serif" font-size="14.00">0</text>
</g>
<!-- 44 -->
<g id="node45" class="node">
<title>44</title>
<ellipse fill="none" stroke="black" cx="249.8" cy="-104.4" rx="18" ry="18"/>
<text text-anchor="middle" x="249.8" y="-100.7" font-family="Times,serif" font-size="14.00">0</text>
</g>
<!-- 45 -->
<g id="node46" class="node">
<title>45</title>
<ellipse fill="none" stroke="black" cx="293" cy="-104.4" rx="18" ry="18"/>
<text text-anchor="middle" x="293" y="-100.7" font-family="Times,serif" font-size="14.00">0</text>
</g>
<!-- 46 -->
<g id="node47" class="node">
<title>46</title>
<ellipse fill="none" stroke="black" cx="336.2" cy="-104.4" rx="18" ry="18"/>
<text text-anchor="middle" x="336.2" y="-100.7" font-family="Times,serif" font-size="14.00">0</text>
</g>
<!-- 47 -->
<g id="node48" class="node">
<title>47</title>
<ellipse fill="none" stroke="black" cx="379.4" cy="-104.4" rx="18" ry="18"/>
<text text-anchor="middle" x="379.4" y="-100.7" font-family="Times,serif" font-size="14.00">0</text>
</g>
<!-- 48 -->
<g id="node49" class="node">
<title>48</title>
<ellipse fill="none" stroke="black" cx="422.6" cy="-104.4" rx="18" ry="18"/>
<text text-anchor="middle" x="422.6" y="-100.7" font-family="Times,serif" font-size="14.00">0</text>
</g>
<!-- 49 -->
<g id="node50" class="node">
<title>49</title>
<ellipse fill="none" stroke="black" cx="465.8" cy="-104.4" rx="18" ry="18"/>
<text text-anchor="middle" x="465.8" y="-100.7" font-family="Times,serif" font-size="14.00">0</text>
</g>
<!-- 50 -->
<g id="node51" class="node">
<title>50</title>
<ellipse fill="none" stroke="black" cx="77" cy="-61.2" rx="18" ry="18"/>
<text text-anchor="middle" x="77" y="-57.5" font-family="Times,serif" font-size="14.00">0</text>
</g>
<!-- 51 -->
<g id="node52" class="node">
<title>51</title>
<ellipse fill="none" stroke="black" cx="120.2" cy="-61.2" rx="18" ry="18"/>
<text text-anchor="middle" x="120.2" y="-57.5" font-family="Times,serif" font-size="14.00">0</text>
</g>
<!-- 52 -->
<g id="node53" class="node">
<title>52</title>
<ellipse fill="none" stroke="black" cx="163.4" cy="-61.2" rx="18" ry="18"/>
<text text-anchor="middle" x="163.4" y="-57.5" font-family="Times,serif" font-size="14.00">0</text>
</g>
<!-- 53 -->
<g id="node54" class="node">
<title>53</title>
<ellipse fill="none" stroke="black" cx="206.6" cy="-61.2" rx="18" ry="18"/>
<text text-anchor="middle" x="206.6" y="-57.5" font-family="Times,serif" font-size="14.00">0</text>
</g>
<!-- 54 -->
<g id="node55" class="node">
<title>54</title>
<ellipse fill="none" stroke="black" cx="249.8" cy="-61.2" rx="18" ry="18"/>
<text text-anchor="middle" x="249.8" y="-57.5" font-family="Times,serif" font-size="14.00">0</text>
</g>
<!-- 55 -->
<g id="node56" class="node">
<title>55</title>
<ellipse fill="none" stroke="black" cx="293" cy="-61.2" rx="18" ry="18"/>
<text text-anchor="middle" x="293" y="-57.5" font-family="Times,serif" font-size="14.00">0</text>
</g>
<!-- 56 -->
<g id="node57" class="node">
<title>56</title>
<ellipse fill="none" stroke="black" cx="336.2" cy="-61.2" rx="18" ry="18"/>
<text text-anchor="middle" x="336.2" y="-57.5" font-family="Times,serif" font-size="14.00">0</text>
</g>
<!-- 57 -->
<g id="node58" class="node">
<title>57</title>
<ellipse fill="none" stroke="black" cx="379.4" cy="-61.2" rx="18" ry="18"/>
<text text-anchor="middle" x="379.4" y="-57.5" font-family="Times,serif" font-size="14.00">0</text>
</g>
<!-- 58 -->
<g id="node59" class="node">
<title>58</title>
<ellipse fill="none" stroke="black" cx="422.6" cy="-61.2" rx="18" ry="18"/>
<text text-anchor="middle" x="422.6" y="-57.5" font-family="Times,serif" font-size="14.00">0</text>
</g>
<!-- 59 -->
<g id="node60" class="node">
<title>59</title>
<ellipse fill="none" stroke="black" cx="465.8" cy="-61.2" rx="18" ry="18"/>
<text text-anchor="middle" x="465.8" y="-57.5" font-family="Times,serif" font-size="14.00">0</text>
</g>
<!-- 60 -->
<g id="node61" class="node">
<title>60</title>
<ellipse fill="none" stroke="black" cx="77" cy="-18" rx="18" ry="18"/>
<text text-anchor="middle" x="77" y="-14.3" font-family="Times,serif" font-size="14.00">0</text>
</g>
<!-- 61 -->
<g id="node62" class="node">
<title>61</title>
<ellipse fill="none" stroke="black" cx="120.2" cy="-18" rx="18" ry="18"/>
<text text-anchor="middle" x="120.2" y="-14.3" font-family="Times,serif" font-size="14.00">0</text>
</g>
<!-- 62 -->
<g id="node63" class="node">
<title>62</title>
<ellipse fill="none" stroke="black" cx="163.4" cy="-18" rx="18" ry="18"/>
<text text-anchor="middle" x="163.4" y="-14.3" font-family="Times,serif" font-size="14.00">0</text>
</g>
<!-- 63 -->
<g id="node64" class="node">
<title>63</title>
<ellipse fill="none" stroke="black" cx="206.6" cy="-18" rx="18" ry="18"/>
<text text-anchor="middle" x="206.6" y="-14.3" font-family="Times,serif" font-size="14.00">0</text>
</g>
<!-- 64 -->
<g id="node65" class="node">
<title>64</title>
<ellipse fill="none" stroke="black" cx="249.8" cy="-18" rx="18" ry="18"/>
<text text-anchor="middle" x="249.8" y="-14.3" font-family="Times,serif" font-size="14.00">0</text>
</g>
<!-- 65 -->
<g id="node66" class="node">
<title>65</title>
<ellipse fill="none" stroke="black" cx="293" cy="-18" rx="18" ry="18"/>
<text text-anchor="middle" x="293" y="-14.3" font-family="Times,serif" font-size="14.00">0</text>
</g>
<!-- 66 -->
<g id="node67" class="node">
<title>66</title>
<ellipse fill="none" stroke="black" cx="336.2" cy="-18" rx="18" ry="18"/>
<text text-anchor="middle" x="336.2" y="-14.3" font-family="Times,serif" font-size="14.00">0</text>
</g>
<!-- 67 -->
<g id="node68" class="node">
<title>67</title>
<ellipse fill="none" stroke="black" cx="379.4" cy="-18" rx="18" ry="18"/>
<text text-anchor="middle" x="379.4" y="-14.3" font-family="Times,serif" font-size="14.00">0</text>
</g>
<!-- 68 -->
<g id="node69" class="node">
<title>68</title>
<ellipse fill="none" stroke="black" cx="422.6" cy="-18" rx="18" ry="18"/>
<text text-anchor="middle" x="422.6" y="-14.3" font-family="Times,serif" font-size="14.00">0</text>
</g>
<!-- 69 -->
<g id="node70" class="node">
<title>69</title>
<ellipse fill="none" stroke="black" cx="465.8" cy="-18" rx="18" ry="18"/>
<text text-anchor="middle" x="465.8" y="-14.3" font-family="Times,serif" font-size="14.00">0</text>
</g>
<!-- 0 item -->
<g id="node71" class="node">
<title>0 item</title>
<ellipse fill="transparent" stroke="transparent" cx="33.8" cy="-277.2" rx="33.6" ry="18"/>
<text text-anchor="middle" x="33.8" y="-273.5" font-family="Times,serif" font-size="14.00">0 item</text>
</g>
<!-- 1 item -->
<g id="node72" class="node">
<title>1 item</title>
<ellipse fill="transparent" stroke="transparent" cx="33.8" cy="-234" rx="33.6" ry="18"/>
<text text-anchor="middle" x="33.8" y="-230.3" font-family="Times,serif" font-size="14.00">1 item</text>
</g>
<!-- 2 item -->
<g id="node73" class="node">
<title>2 item</title>
<ellipse fill="transparent" stroke="transparent" cx="33.8" cy="-190.8" rx="33.6" ry="18"/>
<text text-anchor="middle" x="33.8" y="-187.1" font-family="Times,serif" font-size="14.00">2 item</text>
</g>
<!-- 3 item -->
<g id="node74" class="node">
<title>3 item</title>
<ellipse fill="transparent" stroke="transparent" cx="33.8" cy="-147.6" rx="33.6" ry="18"/>
<text text-anchor="middle" x="33.8" y="-143.9" font-family="Times,serif" font-size="14.00">3 item</text>
</g>
<!-- 4 item -->
<g id="node75" class="node">
<title>4 item</title>
<ellipse fill="transparent" stroke="transparent" cx="33.8" cy="-104.4" rx="33.6" ry="18"/>
<text text-anchor="middle" x="33.8" y="-100.7" font-family="Times,serif" font-size="14.00">4 item</text>
</g>
<!-- 5 item -->
<g id="node76" class="node">
<title>5 item</title>
<ellipse fill="transparent" stroke="transparent" cx="33.8" cy="-61.2" rx="33.6" ry="18"/>
<text text-anchor="middle" x="33.8" y="-57.5" font-family="Times,serif" font-size="14.00">5 item</text>
</g>
<!-- 6 item -->
<g id="node77" class="node">
<title>6 item</title>
<ellipse fill="transparent" stroke="transparent" cx="33.8" cy="-18" rx="33.6" ry="18"/>
<text text-anchor="middle" x="33.8" y="-14.3" font-family="Times,serif" font-size="14.00">6 item</text>
</g>
<!-- 0 g -->
<g id="node78" class="node">
<title>0 g</title>
<ellipse fill="transparent" stroke="transparent" cx="77" cy="-316.08" rx="27" ry="18"/>
<text text-anchor="middle" x="77" y="-312.38" font-family="Times,serif" font-size="14.00">0 g</text>
</g>
<!-- 1 g -->
<g id="node79" class="node">
<title>1 g</title>
<ellipse fill="transparent" stroke="transparent" cx="120.2" cy="-316.08" rx="27" ry="18"/>
<text text-anchor="middle" x="120.2" y="-312.38" font-family="Times,serif" font-size="14.00">1 g</text>
</g>
<!-- 2 g -->
<g id="node80" class="node">
<title>2 g</title>
<ellipse fill="transparent" stroke="transparent" cx="163.4" cy="-316.08" rx="27" ry="18"/>
<text text-anchor="middle" x="163.4" y="-312.38" font-family="Times,serif" font-size="14.00">2 g</text>
</g>
<!-- 3 g -->
<g id="node81" class="node">
<title>3 g</title>
<ellipse fill="transparent" stroke="transparent" cx="206.6" cy="-316.08" rx="27" ry="18"/>
<text text-anchor="middle" x="206.6" y="-312.38" font-family="Times,serif" font-size="14.00">3 g</text>
</g>
<!-- 4 g -->
<g id="node82" class="node">
<title>4 g</title>
<ellipse fill="transparent" stroke="transparent" cx="249.8" cy="-316.08" rx="27" ry="18"/>
<text text-anchor="middle" x="249.8" y="-312.38" font-family="Times,serif" font-size="14.00">4 g</text>
</g>
<!-- 5 g -->
<g id="node83" class="node">
<title>5 g</title>
<ellipse fill="transparent" stroke="transparent" cx="293" cy="-316.08" rx="27" ry="18"/>
<text text-anchor="middle" x="293" y="-312.38" font-family="Times,serif" font-size="14.00">5 g</text>
</g>
<!-- 6 g -->
<g id="node84" class="node">
<title>6 g</title>
<ellipse fill="transparent" stroke="transparent" cx="336.2" cy="-316.08" rx="27" ry="18"/>
<text text-anchor="middle" x="336.2" y="-312.38" font-family="Times,serif" font-size="14.00">6 g</text>
</g>
<!-- 7 g -->
<g id="node85" class="node">
<title>7 g</title>
<ellipse fill="transparent" stroke="transparent" cx="379.4" cy="-316.08" rx="27" ry="18"/>
<text text-anchor="middle" x="379.4" y="-312.38" font-family="Times,serif" font-size="14.00">7 g</text>
</g>
<!-- 8 g -->
<g id="node86" class="node">
<title>8 g</title>
<ellipse fill="transparent" stroke="transparent" cx="422.6" cy="-316.08" rx="27" ry="18"/>
<text text-anchor="middle" x="422.6" y="-312.38" font-family="Times,serif" font-size="14.00">8 g</text>
</g>
<!-- 9 g -->
<g id="node87" class="node">
<title>9 g</title>
<ellipse fill="transparent" stroke="transparent" cx="465.8" cy="-316.08" rx="27" ry="18"/>
<text text-anchor="middle" x="465.8" y="-312.38" font-family="Times,serif" font-size="14.00">9 g</text>
</g>
</g>
</svg>
