<?xml version="1.0" encoding="UTF-8" standalone="no"?>
<!DOCTYPE svg PUBLIC "-//W3C//DTD SVG 1.1//EN"
 "http://www.w3.org/Graphics/SVG/1.1/DTD/svg11.dtd">
<!-- Generated by graphviz version 2.44.1 (20200629.0846)
 -->
<!-- Pages: 1 -->
<svg width="404pt" height="203pt"
 viewBox="0.00 0.00 404.00 203.02" xmlns="http://www.w3.org/2000/svg" xmlns:xlink="http://www.w3.org/1999/xlink">
<g id="graph0" class="graph" transform="scale(1 1) rotate(0) translate(4 199.02)">
<polygon fill="white" stroke="transparent" points="-4,4 -4,-199.02 400,-199.02 400,4 -4,4"/>
<!-- 1 -->
<g id="node1" class="node">
<title>1</title>
<ellipse fill="none" stroke="black" cx="162" cy="-90" rx="18" ry="18"/>
<text text-anchor="middle" x="162" y="-86.3" font-family="Times,serif" font-size="14.00">1</text>
</g>
<!-- 5 -->
<g id="node5" class="node">
<title>5</title>
<ellipse fill="none" stroke="black" cx="378" cy="-68.4" rx="18" ry="18"/>
<text text-anchor="middle" x="378" y="-64.7" font-family="Times,serif" font-size="14.00">5</text>
</g>
<!-- 1&#45;&gt;5 -->
<g id="edge4" class="edge">
<title>1&#45;&gt;5</title>
<path fill="none" stroke="black" d="M180.04,-88.2C217.69,-84.43 304.81,-75.72 349.88,-71.21"/>
<polygon fill="black" stroke="black" points="350.25,-74.69 359.85,-70.21 349.56,-67.73 350.25,-74.69"/>
</g>
<!-- 6 -->
<g id="node6" class="node">
<title>6</title>
<ellipse fill="none" stroke="black" cx="320.4" cy="-162" rx="18" ry="18"/>
<text text-anchor="middle" x="320.4" y="-158.3" font-family="Times,serif" font-size="14.00">6</text>
</g>
<!-- 1&#45;&gt;6 -->
<g id="edge6" class="edge">
<title>1&#45;&gt;6</title>
<path fill="none" stroke="black" d="M178.65,-97.57C206.29,-110.13 261.84,-135.38 294.6,-150.27"/>
<polygon fill="black" stroke="black" points="293.42,-153.58 303.97,-154.53 296.32,-147.21 293.42,-153.58"/>
</g>
<!-- 2 -->
<g id="node2" class="node">
<title>2</title>
<ellipse fill="yellow" stroke="black" cx="104.4" cy="-90" rx="18" ry="18"/>
<text text-anchor="middle" x="104.4" y="-86.3" font-family="Times,serif" font-size="14.00">2</text>
</g>
<!-- 3 -->
<g id="node3" class="node">
<title>3</title>
<ellipse fill="yellow" stroke="black" cx="18" cy="-90" rx="18" ry="18"/>
<text text-anchor="middle" x="18" y="-86.3" font-family="Times,serif" font-size="14.00">3</text>
</g>
<!-- 3&#45;&gt;1 -->
<g id="edge2" class="edge">
<title>3:se&#45;&gt;1:sw</title>
<path fill="none" stroke="black" d="M30.91,-76.95C30.91,-76.95 31.45,-76.47 31.97,-76.26 44.27,-71.24 48.05,-71.71 61.27,-70.4 80.38,-68.51 85.32,-69.15 104.49,-70.4 120.36,-71.44 127.47,-69.28 139.67,-73.17"/>
<polygon fill="black" stroke="black" points="138.5,-76.48 149.09,-76.95 141.1,-69.98 138.5,-76.48"/>
</g>
<!-- 3&#45;&gt;2 -->
<g id="edge3" class="edge">
<title>3:se&#45;&gt;2:sw</title>
<path fill="none" stroke="black" d="M30.91,-76.95C30.91,-76.95 31.45,-76.47 31.97,-76.26 44.27,-71.24 47.99,-70.44 61.27,-70.4 70.81,-70.37 75.72,-70.12 82.42,-72.6"/>
<polygon fill="black" stroke="black" points="80.95,-75.78 91.49,-76.95 83.98,-69.47 80.95,-75.78"/>
</g>
<!-- 4 -->
<g id="node4" class="node">
<title>4</title>
<ellipse fill="yellow" stroke="black" cx="61.2" cy="-90" rx="18" ry="18"/>
<text text-anchor="middle" x="61.2" y="-86.3" font-family="Times,serif" font-size="14.00">4</text>
</g>
<!-- 4&#45;&gt;1 -->
<g id="edge1" class="edge">
<title>4:ne&#45;&gt;1:nw</title>
<path fill="none" stroke="black" d="M74.11,-103.05C74.11,-103.05 74.52,-103.65 75.01,-103.91 86.8,-109.98 91.05,-109.19 104.31,-109.6 120.26,-110.09 127.36,-111.22 139.61,-106.95"/>
<polygon fill="black" stroke="black" points="141.17,-110.09 149.09,-103.05 138.51,-103.62 141.17,-110.09"/>
</g>
<!-- 4&#45;&gt;6 -->
<g id="edge5" class="edge">
<title>4:ne&#45;&gt;6:nw</title>
<path fill="none" stroke="black" d="M74.11,-103.05C74.11,-103.05 74.54,-103.63 75.01,-103.91 164.95,-156.69 198.8,-195.02 297.41,-177.04"/>
<polygon fill="black" stroke="black" points="298.35,-180.42 307.49,-175.05 297,-173.55 298.35,-180.42"/>
</g>
<!-- 7 -->
<g id="node7" class="node">
<title>7</title>
<ellipse fill="none" stroke="black" cx="378" cy="-18" rx="18" ry="18"/>
<text text-anchor="middle" x="378" y="-14.3" font-family="Times,serif" font-size="14.00">7</text>
</g>
<!-- 6&#45;&gt;7 -->
<g id="edge7" class="edge">
<title>6&#45;&gt;7</title>
<path fill="none" stroke="black" d="M327.12,-145.2C337,-120.51 355.53,-74.18 367.29,-44.77"/>
<polygon fill="black" stroke="black" points="370.68,-45.72 371.14,-35.14 364.18,-43.12 370.68,-45.72"/>
</g>
<!-- 8 -->
<g id="node8" class="node">
<title>8</title>
<ellipse fill="none" stroke="black" cx="320.4" cy="-18" rx="18" ry="18"/>
<text text-anchor="middle" x="320.4" y="-14.3" font-family="Times,serif" font-size="14.00">8</text>
</g>
<!-- 7&#45;&gt;8 -->
<g id="edge8" class="edge">
<title>7&#45;&gt;8</title>
<path fill="none" stroke="black" d="M359.78,-18C356.31,-18 352.6,-18 348.91,-18"/>
<polygon fill="black" stroke="black" points="348.7,-14.5 338.7,-18 348.7,-21.5 348.7,-14.5"/>
</g>
</g>
</svg>
