<?xml version="1.0" encoding="UTF-8" standalone="no"?>
<!DOCTYPE svg PUBLIC "-//W3C//DTD SVG 1.1//EN"
 "http://www.w3.org/Graphics/SVG/1.1/DTD/svg11.dtd">
<!-- Generated by graphviz version 2.44.1 (20200629.0846)
 -->
<!-- Pages: 1 -->
<svg width="346pt" height="121pt"
 viewBox="0.00 0.00 346.40 121.29" xmlns="http://www.w3.org/2000/svg" xmlns:xlink="http://www.w3.org/1999/xlink">
<g id="graph0" class="graph" transform="scale(1 1) rotate(0) translate(4 117.29)">
<polygon fill="white" stroke="transparent" points="-4,4 -4,-117.29 342.4,-117.29 342.4,4 -4,4"/>
<!-- 1 -->
<g id="node1" class="node">
<title>1</title>
<ellipse fill="yellow" stroke="black" cx="147.6" cy="-90" rx="18" ry="18"/>
<text text-anchor="middle" x="147.6" y="-86.3" font-family="Times,serif" font-size="14.00">1</text>
</g>
<!-- 5 -->
<g id="node5" class="node">
<title>5</title>
<ellipse fill="yellow" stroke="black" cx="190.8" cy="-90" rx="18" ry="18"/>
<text text-anchor="middle" x="190.8" y="-86.3" font-family="Times,serif" font-size="14.00">5</text>
</g>
<!-- 1&#45;&gt;5 -->
<g id="edge4" class="edge">
<title>1:se&#45;&gt;5:sw</title>
<path fill="none" stroke="black" d="M160.51,-76.95C160.51,-76.95 160.95,-76.34 161.47,-76.15 164.1,-75.18 166.11,-74.54 168.05,-74.37"/>
<polygon fill="black" stroke="black" points="167.32,-77.79 177.89,-76.95 169.1,-71.02 167.32,-77.79"/>
</g>
<!-- 6 -->
<g id="node6" class="node">
<title>6</title>
<ellipse fill="yellow" stroke="black" cx="234" cy="-90" rx="18" ry="18"/>
<text text-anchor="middle" x="234" y="-86.3" font-family="Times,serif" font-size="14.00">6</text>
</g>
<!-- 1&#45;&gt;6 -->
<g id="edge6" class="edge">
<title>1:se&#45;&gt;6:sw</title>
<path fill="none" stroke="black" d="M160.51,-76.95C160.51,-76.95 160.97,-76.39 161.47,-76.15 173.49,-70.39 177.58,-70.39 190.91,-70.4 200.43,-70.41 205.21,-70.39 211.92,-72.82"/>
<polygon fill="black" stroke="black" points="210.53,-76.03 221.09,-76.95 213.4,-69.65 210.53,-76.03"/>
</g>
<!-- 2 -->
<g id="node2" class="node">
<title>2</title>
<ellipse fill="yellow" stroke="black" cx="104.4" cy="-90" rx="18" ry="18"/>
<text text-anchor="middle" x="104.4" y="-86.3" font-family="Times,serif" font-size="14.00">2</text>
</g>
<!-- 3 -->
<g id="node3" class="node">
<title>3</title>
<ellipse fill="yellow" stroke="black" cx="18" cy="-90" rx="18" ry="18"/>
<text text-anchor="middle" x="18" y="-86.3" font-family="Times,serif" font-size="14.00">3</text>
</g>
<!-- 3&#45;&gt;1 -->
<g id="edge2" class="edge">
<title>3:se&#45;&gt;1:sw</title>
<path fill="none" stroke="black" d="M30.91,-76.95C30.91,-76.95 31.45,-76.47 31.97,-76.26 44.27,-71.24 48.05,-71.71 61.27,-70.4 80.38,-68.51 85.37,-68.54 104.49,-70.4 113.76,-71.3 118.57,-70.9 125.08,-72.88"/>
<polygon fill="black" stroke="black" points="124.11,-76.28 134.69,-76.95 126.84,-69.83 124.11,-76.28"/>
</g>
<!-- 3&#45;&gt;2 -->
<g id="edge3" class="edge">
<title>3:se&#45;&gt;2:sw</title>
<path fill="none" stroke="black" d="M30.91,-76.95C30.91,-76.95 31.45,-76.47 31.97,-76.26 44.27,-71.24 47.99,-70.44 61.27,-70.4 70.81,-70.37 75.72,-70.12 82.42,-72.6"/>
<polygon fill="black" stroke="black" points="80.95,-75.78 91.49,-76.95 83.98,-69.47 80.95,-75.78"/>
</g>
<!-- 4 -->
<g id="node4" class="node">
<title>4</title>
<ellipse fill="yellow" stroke="black" cx="61.2" cy="-90" rx="18" ry="18"/>
<text text-anchor="middle" x="61.2" y="-86.3" font-family="Times,serif" font-size="14.00">4</text>
</g>
<!-- 4&#45;&gt;1 -->
<g id="edge1" class="edge">
<title>4:ne&#45;&gt;1:nw</title>
<path fill="none" stroke="black" d="M74.11,-103.05C74.11,-103.05 74.52,-103.65 75.01,-103.91 86.8,-109.98 91.05,-109.61 104.31,-109.6 113.89,-109.6 118.69,-109.6 125.45,-107.17"/>
<polygon fill="black" stroke="black" points="126.98,-110.32 134.69,-103.05 124.13,-103.93 126.98,-110.32"/>
</g>
<!-- 4&#45;&gt;6 -->
<g id="edge5" class="edge">
<title>4:ne&#45;&gt;6:nw</title>
<path fill="none" stroke="black" d="M74.11,-103.05C74.11,-103.05 74.52,-103.65 75.01,-103.91 86.8,-109.98 91.11,-108.33 104.31,-109.6 142.52,-113.28 152.48,-113.29 190.69,-109.6 200.23,-108.68 205.07,-109.11 211.84,-106.97"/>
<polygon fill="black" stroke="black" points="213.25,-110.18 221.09,-103.05 210.51,-103.74 213.25,-110.18"/>
</g>
<!-- 7 -->
<g id="node7" class="node">
<title>7</title>
<ellipse fill="yellow" stroke="black" cx="277.2" cy="-90" rx="18" ry="18"/>
<text text-anchor="middle" x="277.2" y="-86.3" font-family="Times,serif" font-size="14.00">7</text>
</g>
<!-- 6&#45;&gt;7 -->
<g id="edge7" class="edge">
<title>6:ne&#45;&gt;7:nw</title>
<path fill="none" stroke="black" d="M246.91,-103.05C246.91,-103.05 247.34,-103.67 247.86,-103.86 250.48,-104.82 252.45,-105.38 254.37,-105.49"/>
<polygon fill="black" stroke="black" points="255.41,-108.84 264.29,-103.05 253.74,-102.04 255.41,-108.84"/>
</g>
<!-- 8 -->
<g id="node8" class="node">
<title>8</title>
<ellipse fill="none" stroke="black" cx="320.4" cy="-18" rx="18" ry="18"/>
<text text-anchor="middle" x="320.4" y="-14.3" font-family="Times,serif" font-size="14.00">8</text>
</g>
<!-- 7&#45;&gt;8 -->
<g id="edge8" class="edge">
<title>7:se&#45;&gt;8:sw</title>
<path fill="none" stroke="black" d="M290.2,-77C290.2,-77 292.24,-43.12 300.8,-17.81 301.25,-16.49 301.81,-15.14 302.42,-13.83"/>
<polygon fill="black" stroke="black" points="305.49,-15.52 307.35,-5.08 299.39,-12.08 305.49,-15.52"/>
</g>
</g>
</svg>
