<?xml version="1.0" encoding="UTF-8" standalone="no"?>
<!DOCTYPE svg PUBLIC "-//W3C//DTD SVG 1.1//EN"
 "http://www.w3.org/Graphics/SVG/1.1/DTD/svg11.dtd">
<!-- Generated by graphviz version 2.44.1 (20200629.0846)
 -->
<!-- Pages: 1 -->
<svg width="346pt" height="53pt"
 viewBox="0.00 0.00 346.40 52.78" xmlns="http://www.w3.org/2000/svg" xmlns:xlink="http://www.w3.org/1999/xlink">
<g id="graph0" class="graph" transform="scale(1 1) rotate(0) translate(4 48.78)">
<polygon fill="white" stroke="transparent" points="-4,4 -4,-48.78 342.4,-48.78 342.4,4 -4,4"/>
<!-- 1 -->
<g id="node1" class="node">
<title>1</title>
<ellipse fill="yellow" stroke="black" cx="147.6" cy="-21.49" rx="18" ry="18"/>
<text text-anchor="middle" x="147.6" y="-17.79" font-family="Times,serif" font-size="14.00">1</text>
</g>
<!-- 5 -->
<g id="node5" class="node">
<title>5</title>
<ellipse fill="yellow" stroke="black" cx="190.8" cy="-21.49" rx="18" ry="18"/>
<text text-anchor="middle" x="190.8" y="-17.79" font-family="Times,serif" font-size="14.00">5</text>
</g>
<!-- 1&#45;&gt;5 -->
<g id="edge4" class="edge">
<title>1:se&#45;&gt;5:sw</title>
<path fill="none" stroke="black" d="M160.51,-8.44C160.51,-8.44 160.95,-7.83 161.47,-7.64 164.1,-6.67 166.11,-6.03 168.05,-5.86"/>
<polygon fill="black" stroke="black" points="167.32,-9.29 177.89,-8.44 169.1,-2.52 167.32,-9.29"/>
</g>
<!-- 6 -->
<g id="node6" class="node">
<title>6</title>
<ellipse fill="yellow" stroke="black" cx="234" cy="-21.49" rx="18" ry="18"/>
<text text-anchor="middle" x="234" y="-17.79" font-family="Times,serif" font-size="14.00">6</text>
</g>
<!-- 1&#45;&gt;6 -->
<g id="edge6" class="edge">
<title>1:se&#45;&gt;6:sw</title>
<path fill="none" stroke="black" d="M160.51,-8.44C160.51,-8.44 160.97,-7.88 161.47,-7.64 173.49,-1.88 177.58,-1.88 190.91,-1.89 200.43,-1.9 205.21,-1.88 211.92,-4.31"/>
<polygon fill="black" stroke="black" points="210.53,-7.53 221.09,-8.44 213.4,-1.14 210.53,-7.53"/>
</g>
<!-- 2 -->
<g id="node2" class="node">
<title>2</title>
<ellipse fill="yellow" stroke="black" cx="104.4" cy="-21.49" rx="18" ry="18"/>
<text text-anchor="middle" x="104.4" y="-17.79" font-family="Times,serif" font-size="14.00">2</text>
</g>
<!-- 3 -->
<g id="node3" class="node">
<title>3</title>
<ellipse fill="yellow" stroke="black" cx="18" cy="-21.49" rx="18" ry="18"/>
<text text-anchor="middle" x="18" y="-17.79" font-family="Times,serif" font-size="14.00">3</text>
</g>
<!-- 3&#45;&gt;1 -->
<g id="edge2" class="edge">
<title>3:se&#45;&gt;1:sw</title>
<path fill="none" stroke="black" d="M30.91,-8.44C30.91,-8.44 31.45,-7.96 31.97,-7.75 44.27,-2.73 48.05,-3.2 61.27,-1.89 80.38,0 85.37,-0.04 104.49,-1.89 113.76,-2.79 118.57,-2.39 125.08,-4.38"/>
<polygon fill="black" stroke="black" points="124.11,-7.77 134.69,-8.44 126.84,-1.32 124.11,-7.77"/>
</g>
<!-- 3&#45;&gt;2 -->
<g id="edge3" class="edge">
<title>3:se&#45;&gt;2:sw</title>
<path fill="none" stroke="black" d="M30.91,-8.44C30.91,-8.44 31.45,-7.96 31.97,-7.75 44.27,-2.73 47.99,-1.93 61.27,-1.89 70.81,-1.86 75.72,-1.61 82.42,-4.09"/>
<polygon fill="black" stroke="black" points="80.95,-7.27 91.49,-8.44 83.98,-0.96 80.95,-7.27"/>
</g>
<!-- 4 -->
<g id="node4" class="node">
<title>4</title>
<ellipse fill="yellow" stroke="black" cx="61.2" cy="-21.49" rx="18" ry="18"/>
<text text-anchor="middle" x="61.2" y="-17.79" font-family="Times,serif" font-size="14.00">4</text>
</g>
<!-- 4&#45;&gt;1 -->
<g id="edge1" class="edge">
<title>4:ne&#45;&gt;1:nw</title>
<path fill="none" stroke="black" d="M74.11,-34.54C74.11,-34.54 74.52,-35.15 75.01,-35.4 86.8,-41.48 91.05,-41.1 104.31,-41.09 113.89,-41.09 118.69,-41.09 125.45,-38.66"/>
<polygon fill="black" stroke="black" points="126.98,-41.81 134.69,-34.54 124.13,-35.42 126.98,-41.81"/>
</g>
<!-- 4&#45;&gt;6 -->
<g id="edge5" class="edge">
<title>4:ne&#45;&gt;6:nw</title>
<path fill="none" stroke="black" d="M74.11,-34.54C74.11,-34.54 74.52,-35.15 75.01,-35.4 86.8,-41.48 91.11,-39.82 104.31,-41.09 142.52,-44.77 152.48,-44.78 190.69,-41.09 200.23,-40.17 205.07,-40.6 211.84,-38.47"/>
<polygon fill="black" stroke="black" points="213.25,-41.67 221.09,-34.54 210.51,-35.23 213.25,-41.67"/>
</g>
<!-- 7 -->
<g id="node7" class="node">
<title>7</title>
<ellipse fill="yellow" stroke="black" cx="277.2" cy="-21.49" rx="18" ry="18"/>
<text text-anchor="middle" x="277.2" y="-17.79" font-family="Times,serif" font-size="14.00">7</text>
</g>
<!-- 6&#45;&gt;7 -->
<g id="edge7" class="edge">
<title>6:ne&#45;&gt;7:nw</title>
<path fill="none" stroke="black" d="M246.91,-34.54C246.91,-34.54 247.34,-35.16 247.86,-35.35 250.48,-36.32 252.45,-36.87 254.37,-36.98"/>
<polygon fill="black" stroke="black" points="255.41,-40.33 264.29,-34.54 253.74,-33.53 255.41,-40.33"/>
</g>
<!-- 8 -->
<g id="node8" class="node">
<title>8</title>
<ellipse fill="yellow" stroke="black" cx="320.4" cy="-21.49" rx="18" ry="18"/>
<text text-anchor="middle" x="320.4" y="-17.79" font-family="Times,serif" font-size="14.00">8</text>
</g>
<!-- 7&#45;&gt;8 -->
<g id="edge8" class="edge">
<title>7:se&#45;&gt;8:sw</title>
<path fill="none" stroke="black" d="M290.11,-8.44C290.11,-8.44 290.56,-7.85 291.09,-7.66 293.74,-6.71 295.77,-6.03 297.72,-5.82"/>
<polygon fill="black" stroke="black" points="296.92,-9.23 307.49,-8.44 298.74,-2.47 296.92,-9.23"/>
</g>
</g>
</svg>
